<?xml version="1.0" standalone="no"?>
<!DOCTYPE svg PUBLIC "-//W3C//DTD SVG 20010904//EN"
 "http://www.w3.org/TR/2001/REC-SVG-20010904/DTD/svg10.dtd">
<svg version="1.0" xmlns="http://www.w3.org/2000/svg"
 width="800.000000pt" height="800.000000pt" viewBox="0 0 800.000000 800.000000"
 preserveAspectRatio="xMidYMid meet">

<g transform="translate(0.000000,800.000000) scale(0.100000,-0.100000)"
fill="#000000" stroke="none">
<path d="M2646 7039 c-647 -83 -1204 -474 -1492 -1048 -269 -537 -273 -1183
-9 -1713 298 -599 860 -993 1525 -1069 160 -18 424 -6 580 26 239 50 492 152
672 273 40 27 78 51 84 55 6 4 41 -29 80 -76 367 -438 992 -1115 1425 -1542
601 -593 916 -825 1116 -825 67 0 105 16 165 69 160 142 105 341 -195 711
-355 437 -1232 1286 -2032 1970 -60 51 -116 99 -123 105 -10 9 -7 19 16 51
215 300 342 707 342 1099 0 970 -714 1783 -1678 1910 -122 16 -364 18 -476 4z
m574 -362 c292 -70 532 -197 736 -390 209 -198 338 -398 424 -656 49 -147 67
-239 78 -387 27 -360 -64 -706 -265 -1009 -87 -130 -293 -339 -414 -418 -320
-211 -634 -296 -1011 -275 -624 35 -1184 460 -1392 1055 -68 197 -81 281 -81
528 0 248 9 307 75 506 81 246 193 424 384 614 263 261 509 385 916 459 14 2
120 3 235 1 183 -3 224 -6 315 -28z"/>
</g>
</svg>
