<?xml version="1.0" standalone="no"?>
<!DOCTYPE svg PUBLIC "-//W3C//DTD SVG 20010904//EN"
 "http://www.w3.org/TR/2001/REC-SVG-20010904/DTD/svg10.dtd">
<svg version="1.0" xmlns="http://www.w3.org/2000/svg"
 width="306.000000pt" height="324.000000pt" viewBox="0 0 306.000000 324.000000"
 preserveAspectRatio="xMidYMid meet">

<g transform="translate(0.000000,324.000000) scale(0.100000,-0.100000)"
fill="#000000" stroke="none">
<path d="M1467 3120 c-140 -17 -286 -81 -400 -175 -338 -279 -370 -797 -69
-1117 62 -66 186 -158 232 -173 18 -6 20 -16 20 -94 l0 -88 -87 -17 c-116 -23
-189 -48 -308 -108 -341 -170 -582 -504 -634 -882 -17 -121 -14 -179 10 -210
l20 -26 1304 0 c717 0 1311 3 1320 6 8 4 23 20 31 36 13 26 14 45 4 137 -43
413 -278 759 -638 939 -102 51 -192 84 -277 102 -106 22 -95 9 -95 113 l0 92
49 28 c258 145 420 464 381 754 -23 179 -90 320 -212 448 -77 82 -163 142
-256 180 -122 50 -270 70 -395 55z m-8 -1536 c40 -8 40 -24 0 -24 l-31 0 46
-51 c25 -28 43 -55 40 -60 -3 -6 -30 11 -60 36 l-54 47 0 -32 c0 -58 -25 -28
-28 33 -3 57 -3 57 26 57 16 0 44 -3 61 -6z m311 -54 c0 -33 -4 -60 -10 -60
-5 0 -10 17 -10 37 l0 37 -54 -53 c-67 -66 -83 -52 -20 18 l46 51 -31 0 c-30
0 -39 9 -24 23 3 4 28 7 55 7 l48 0 0 -60z m-301 -256 l-53 -54 37 0 c20 0 37
-4 37 -10 0 -5 -25 -10 -55 -10 l-55 0 0 55 c0 30 5 55 10 55 6 0 10 -17 10
-37 l0 -38 52 52 c28 29 56 49 61 46 5 -3 -15 -30 -44 -59z m281 -1 c0 20 5
37 10 37 6 0 10 -25 10 -55 l0 -55 -55 0 c-30 0 -55 5 -55 10 0 6 17 10 37 10
l37 0 -52 53 c-29 29 -49 56 -45 60 4 4 31 -16 60 -45 l53 -52 0 37z"/>
</g>
</svg>
