<?xml version="1.0" standalone="no"?>
<!DOCTYPE svg PUBLIC "-//W3C//DTD SVG 20010904//EN"
 "http://www.w3.org/TR/2001/REC-SVG-20010904/DTD/svg10.dtd">
<svg version="1.0" xmlns="http://www.w3.org/2000/svg"
 width="68.000000pt" height="63.000000pt" viewBox="0 0 68.000000 63.000000"
 preserveAspectRatio="xMidYMid meet">

<g transform="translate(0.000000,63.000000) scale(0.100000,-0.100000)"
fill="#000000" stroke="none">
<path d="M160 600 c-119 -15 -134 -43 -138 -266 -5 -207 6 -272 49 -309 l31
-25 227 0 c250 0 255 1 288 63 13 25 18 67 21 198 7 273 -14 323 -144 340 -80
10 -254 10 -334 -1z m40 -213 c0 -41 37 -116 68 -135 l22 -14 0 91 0 91 35 0
35 0 0 -50 c0 -31 4 -50 11 -50 16 0 79 68 79 86 0 10 12 14 40 14 l40 0 -15
-37 c-9 -21 -28 -51 -43 -66 l-27 -28 28 -21 c26 -19 67 -85 67 -108 0 -5 -15
-10 -34 -10 -28 0 -38 6 -59 39 -14 22 -39 43 -56 49 l-31 11 0 -50 0 -50 -37
7 c-70 11 -123 44 -154 93 -32 49 -49 100 -49 144 0 25 3 27 40 27 39 0 40 -1
40 -33z"/>
</g>
</svg>
