<?xml version="1.0" standalone="no"?>
<!DOCTYPE svg PUBLIC "-//W3C//DTD SVG 20010904//EN"
 "http://www.w3.org/TR/2001/REC-SVG-20010904/DTD/svg10.dtd">
<svg version="1.0" xmlns="http://www.w3.org/2000/svg"
 width="445.000000pt" height="513.000000pt" viewBox="0 0 445.000000 513.000000"
 preserveAspectRatio="xMidYMid meet">

<g transform="translate(0.000000,513.000000) scale(0.100000,-0.100000)"
fill="#000000" stroke="none">
<path d="M2300 5123 c-21 -3 -87 -22 -140 -39 -8 -3 -458 -6 -1000 -7 -1078
-2 -1013 1 -1086 -60 -68 -58 -63 152 -65 -2431 l-1 -2338 28 -30 c16 -17 47
-39 70 -49 43 -20 169 -38 146 -21 -24 16 78 19 678 21 316 0 689 4 828 8 180
4 252 3 252 -5 0 -6 23 -36 51 -66 55 -60 136 -106 183 -105 29 0 28 1 -11 14
-40 12 -133 61 -133 70 0 2 21 -7 48 -21 106 -55 113 -55 1120 -52 l927 3 73
26 c39 14 72 24 72 22 0 -6 -66 -37 -105 -49 l-40 -13 33 0 c81 -2 222 112
222 178 0 21 -2 23 -11 11 -9 -12 -9 -11 -3 5 4 11 9 54 10 95 l4 75 -15 -63
c-14 -64 -50 -138 -79 -162 -9 -7 -1 13 18 44 22 37 38 81 46 124 8 49 10 655
8 2287 l-3 2220 -22 54 c-12 30 -37 73 -54 95 l-32 41 36 -34 c44 -41 74 -103
86 -174 l9 -52 1 68 c1 43 -5 80 -14 100 -14 29 -14 30 0 13 14 -19 15 -19 15
10 -1 54 -83 127 -187 167 l-58 22 -940 1 c-517 1 -951 0 -965 -3z m1902 -24
c57 -13 144 -47 136 -54 -2 -2 -29 5 -59 18 l-54 22 -949 3 c-615 2 -968 -1
-1004 -8 -30 -5 -80 -21 -111 -35 -32 -14 -48 -18 -36 -9 28 22 81 45 140 60
68 17 1858 20 1937 3z m-2580 -56 c-266 -2 -698 -2 -960 0 -262 1 -45 2 483 2
528 0 743 -1 477 -2z m508 -81 c-17 -21 -41 -63 -53 -93 l-22 -54 -3 -2220
c-2 -1632 0 -2238 8 -2287 7 -42 24 -88 46 -125 28 -48 29 -53 8 -28 -37 43
-61 100 -74 175 -8 46 -10 695 -8 2270 l3 2205 22 60 c13 33 39 76 60 97 47
49 52 48 13 0z m478 -14 c7 -7 12 -26 12 -42 0 -17 9 -46 20 -64 39 -63 35
-63 615 -60 514 3 524 3 552 24 32 24 48 53 60 109 l8 40 139 3 c165 3 218
-10 277 -69 67 -67 69 -81 69 -606 0 -255 -2 -463 -4 -463 -3 0 -17 5 -33 11
-16 6 -48 7 -76 4 -122 -17 -179 -148 -112 -256 20 -32 87 -69 126 -69 54 0
68 8 62 33 -5 22 -5 22 10 2 14 -19 15 -18 9 10 -3 17 -13 36 -24 43 -10 7
-18 24 -18 37 0 13 -7 31 -17 40 -14 14 -14 18 -2 26 9 6 18 4 25 -6 19 -26
24 -17 24 45 0 47 3 60 15 60 13 0 15 -85 15 -725 0 -632 -2 -725 -15 -725 -8
0 -15 -4 -15 -9 0 -6 -12 -9 -27 -8 -26 2 -28 -1 -27 -33 1 -19 0 -29 -3 -22
-3 6 -12 12 -20 12 -12 0 -13 3 -4 14 9 11 6 15 -19 18 -31 5 -41 -6 -15 -16
8 -3 15 -10 15 -16 0 -18 -38 -11 -76 15 -24 17 -41 22 -48 16 -13 -11 -45 4
-33 15 8 8 -21 44 -35 44 -5 0 -7 -9 -3 -19 7 -23 -14 -39 -26 -20 -6 10 -9 7
-9 -11 -1 -24 -1 -24 -16 -5 -13 18 -12 21 8 37 19 15 20 18 6 18 -10 0 -18 7
-18 15 0 12 8 14 31 10 19 -4 28 -2 24 5 -3 5 -1 10 4 10 6 0 11 -8 11 -18 0
-10 11 -28 24 -41 l23 -22 -4 41 c-2 22 0 40 6 40 5 0 9 -14 9 -30 -1 -17 2
-33 5 -37 4 -3 7 6 7 20 0 31 7 34 26 9 20 -25 18 3 -2 33 -21 32 -4 32 30 0
27 -25 27 -25 21 -3 -4 13 -11 27 -16 33 -15 15 -10 25 16 35 25 9 27 24 10
63 -9 22 -61 23 -69 1 -6 -15 -8 -15 -31 0 -21 14 -65 16 -313 16 -281 0 -290
-1 -295 -20 -7 -26 -27 -26 -27 1 0 14 -5 19 -17 17 -11 -2 -17 -11 -15 -22 2
-11 -2 -23 -10 -28 -10 -8 -10 -11 0 -15 15 -6 16 -40 2 -45 -6 -2 -2 -13 10
-25 11 -12 20 -27 20 -32 0 -6 8 -14 17 -19 15 -9 15 -12 -1 -46 -17 -36 -46
-49 -46 -21 0 9 6 12 18 9 14 -5 14 -3 -2 10 -20 16 -20 16 0 17 10 1 23 1 28
0 5 -1 4 5 -3 13 -7 8 -18 13 -24 11 -7 -2 -25 -6 -42 -10 l-30 -7 25 -13 25
-14 -31 -1 c-17 0 -37 7 -44 15 -11 13 -9 20 10 40 13 14 19 25 13 25 -6 0
-16 -7 -23 -15 -16 -19 -39 -19 -46 0 -9 21 -25 19 -17 -3 7 -19 27 -40 63
-65 24 -17 24 -17 2 -17 -15 0 -22 -6 -22 -19 0 -10 -7 -21 -15 -25 -9 -3 -15
0 -15 10 0 9 -9 27 -19 40 l-19 25 2 -34 c2 -19 6 -39 10 -46 5 -7 0 -11 -13
-11 -18 0 -19 -3 -10 -29 6 -17 17 -35 25 -42 18 -15 18 -33 0 -26 -9 4 -16
-4 -20 -25 -7 -35 2 -57 15 -37 8 11 11 11 20 -3 5 -10 18 -18 27 -18 21 -1
52 -23 52 -38 0 -7 -16 -4 -43 7 -37 16 -48 17 -73 6 -33 -14 -84 -69 -84 -91
0 -8 -3 -13 -7 -13 -22 4 -28 -4 -28 -35 0 -36 10 -37 17 -2 5 32 23 28 41
-10 12 -23 13 -33 5 -28 -10 6 -10 4 0 -9 8 -9 11 -21 7 -26 -3 -7 0 -8 9 -5
11 4 19 -3 26 -21 14 -36 13 -48 -4 -42 -16 6 -113 -40 -142 -68 -41 -39 -42
-145 -3 -145 23 0 23 1 4 -38 -15 -30 -15 -33 19 -101 20 -38 40 -72 46 -76
20 -13 9 -21 -23 -17 -50 6 -87 -30 -94 -91 -4 -36 -2 -52 11 -66 23 -25 67
-36 77 -19 5 7 9 8 9 3 0 -9 27 -12 64 -6 4 0 6 12 4 26 -4 21 -3 23 9 14 7
-7 11 -20 8 -30 -4 -11 -2 -19 4 -19 6 0 11 5 11 10 0 15 70 12 70 -2 1 -8 5
-7 13 4 12 15 15 14 36 -8 25 -26 41 -31 41 -12 0 20 32 48 54 48 12 0 30 -7
40 -15 11 -8 30 -15 43 -15 16 0 21 -4 17 -15 -5 -11 -2 -13 10 -9 9 3 16 14
16 23 1 14 2 14 11 -1 12 -22 37 -23 60 -3 15 14 18 14 35 -2 12 -13 19 -14
22 -5 2 7 8 10 13 6 5 -3 9 0 9 7 0 8 13 10 43 6 34 -5 46 -2 65 15 12 12 22
16 22 10 0 -6 -4 -14 -10 -17 -19 -12 -10 -25 19 -25 17 0 31 -6 35 -16 4 -10
13 -13 27 -9 14 5 25 1 33 -10 11 -15 15 -16 37 -4 13 8 27 19 31 24 4 6 8 6
8 1 0 -5 6 -3 14 3 11 9 15 8 20 -5 4 -9 13 -14 21 -10 8 3 15 1 15 -4 0 -6 7
-10 15 -10 8 0 15 5 15 10 0 6 -5 10 -11 10 -5 0 -7 5 -4 10 9 15 25 12 25 -4
0 -7 9 -16 21 -19 15 -4 19 -2 15 9 -3 7 -8 37 -12 66 -15 120 -70 159 -169
122 -20 -7 -20 -7 0 17 12 13 27 33 35 43 14 18 13 19 -3 13 -12 -5 -16 -3
-11 5 4 6 8 23 10 37 1 14 5 51 8 82 5 47 2 60 -14 80 -12 12 -18 29 -16 36 4
10 -2 10 -24 -2 -26 -14 -30 -21 -30 -59 0 -56 -27 -68 -66 -29 -24 24 -25 30
-16 62 6 20 14 60 18 88 5 42 4 53 -7 53 -10 1 -8 5 5 15 11 8 17 15 14 15 -4
0 -13 3 -22 6 -10 4 -16 1 -16 -9 0 -10 -7 -13 -20 -10 -14 4 -22 -1 -28 -17
-8 -21 -8 -21 -20 5 -7 14 -17 23 -22 20 -6 -3 -13 2 -17 12 -4 10 -13 24 -20
31 -16 16 -17 29 -3 37 16 10 12 45 -5 45 -8 0 -15 7 -15 15 0 10 -10 15 -34
15 -31 0 -34 -3 -31 -25 2 -22 -1 -25 -24 -23 -36 4 -52 35 -34 71 7 15 10 27
5 27 -13 0 -32 -47 -32 -77 0 -15 7 -35 17 -45 14 -16 16 -37 11 -95 -1 -6 -7
-9 -14 -6 -10 4 -10 -6 3 -43 9 -27 18 -44 20 -37 3 7 16 5 41 -7 36 -18 37
-17 50 2 9 13 12 34 9 59 -3 21 -2 39 3 39 17 0 31 -29 24 -54 -3 -13 -1 -41
6 -61 12 -38 57 -98 68 -91 4 2 8 -10 9 -28 1 -17 8 -44 17 -61 9 -16 16 -35
16 -41 0 -7 16 -26 35 -43 20 -17 32 -31 28 -32 -4 0 2 -4 15 -10 15 -5 22
-15 20 -26 -4 -19 -35 -25 -55 -10 -7 5 -19 7 -27 4 -15 -6 -66 58 -66 84 0 8
-14 30 -31 49 l-31 35 21 -36 c19 -32 19 -38 6 -49 -10 -9 -15 -9 -15 -1 0 6
-14 40 -30 75 -28 59 -60 91 -68 68 -2 -6 -32 -8 -67 -6 -38 2 -65 -1 -65 -6
0 -6 31 -10 69 -10 39 0 73 -5 76 -10 5 -8 -18 -10 -69 -7 -42 2 -76 0 -76 -5
0 -4 36 -8 80 -8 52 0 80 -4 80 -11 0 -7 -27 -10 -82 -8 l-83 4 -5 30 c-6 37
-34 40 -38 4 -2 -14 2 -38 8 -54 9 -25 12 -26 23 -12 9 12 33 17 102 18 49 1
90 -2 91 -7 2 -5 8 -28 14 -51 11 -46 42 -69 120 -92 58 -17 73 -24 78 -41 3
-7 0 -10 -6 -7 -5 4 -12 -3 -16 -16 -4 -13 -9 -18 -13 -12 -9 12 -28 13 -39 3
-15 -16 -25 -7 -19 15 6 21 6 21 -15 -3 -15 -18 -19 -19 -11 -5 8 17 2 27 -41
67 -28 26 -55 45 -59 42 -4 -2 -10 0 -14 6 -3 5 1 10 9 10 18 0 20 18 6 54 -9
25 -13 26 -94 26 -65 0 -85 -3 -90 -15 -3 -8 -14 -15 -25 -15 -11 0 -23 -5
-26 -10 -14 -22 -23 3 -29 80 -6 67 -5 84 11 110 10 17 29 34 43 37 28 7 40
20 40 44 0 20 -33 59 -51 59 -12 0 -11 2 0 9 11 7 1 16 -42 36 -46 22 -56 31
-55 50 2 20 6 22 38 18 19 -3 39 -9 44 -14 5 -5 15 -4 23 2 8 7 13 8 13 1 0
-5 -7 -12 -15 -16 -8 -3 -15 -10 -15 -15 0 -11 61 -71 73 -71 4 0 7 27 7 59 0
55 -2 60 -27 70 l-28 11 28 -4 c25 -3 27 -1 29 38 0 22 1 49 0 58 -1 9 7 20
18 23 11 4 20 10 20 15 0 5 17 14 38 21 32 9 44 8 68 -4 52 -27 114 -87 114
-110 0 -12 17 -41 39 -65 30 -32 46 -42 70 -42 17 0 31 5 31 10 0 6 5 10 11
10 6 0 9 -7 5 -15 -3 -8 0 -15 6 -15 24 0 76 -51 96 -94 21 -44 42 -67 42 -46
0 6 5 8 10 5 6 -4 8 -11 5 -16 -4 -5 -2 -9 3 -9 5 0 24 -3 41 -6 40 -8 41 10
1 31 -30 16 -43 42 -15 32 8 -4 17 -2 20 3 3 5 12 7 20 3 8 -3 15 0 15 6 0 6
9 11 19 11 11 0 21 6 24 13 3 9 9 9 27 -1 29 -17 38 -7 16 17 -12 13 -14 21
-6 26 7 4 16 -5 23 -24 9 -25 15 -29 35 -24 21 5 23 2 20 -18 -2 -19 -8 -23
-28 -21 -15 1 -20 -1 -13 -6 35 -23 58 -173 33 -212 -6 -10 -10 -11 -10 -2 0
7 -13 12 -31 12 -24 0 -30 4 -27 18 2 10 12 17 26 16 21 -1 21 1 7 23 -12 18
-13 28 -5 44 15 27 6 49 -19 49 -12 0 -26 -12 -35 -29 -14 -26 -14 -30 -1 -35
23 -9 17 -36 -10 -46 -26 -10 -36 -52 -15 -65 6 -3 10 -1 10 4 0 19 17 12 23
-9 4 -17 2 -20 -15 -14 -17 5 -19 2 -16 -23 2 -22 -1 -27 -14 -25 -11 2 -18
-3 -18 -14 0 -12 -7 -15 -30 -12 -33 5 -35 2 -21 -35 9 -24 13 -25 93 -23 46
1 91 0 101 -2 17 -4 18 -31 15 -491 -3 -480 -3 -486 -25 -528 -27 -51 -82 -96
-132 -112 -54 -16 -1868 -16 -1922 0 -50 16 -105 61 -132 112 -22 42 -22 47
-25 549 l-3 506 36 0 c41 0 46 -14 10 -28 -14 -5 -25 -14 -25 -20 0 -6 5 -8
11 -5 5 4 19 -1 29 -10 18 -16 18 -16 14 2 -3 12 6 27 29 44 l33 27 2 -36 c3
-36 15 -52 40 -52 10 0 10 5 1 22 -10 19 -9 24 10 36 16 11 21 25 21 56 0 23
4 56 9 74 l10 32 -115 0 -114 0 0 95 0 95 153 2 c83 1 124 3 90 5 l-63 4 6 62
c10 111 1 102 106 101 91 -2 94 -1 126 29 21 21 35 45 39 69 7 46 63 96 117
105 33 5 134 -25 161 -49 5 -4 19 -8 32 -8 29 0 31 35 3 50 -11 6 -20 17 -20
25 0 8 -8 19 -17 24 -25 14 0 14 31 -1 14 -6 28 -19 31 -30 4 -10 13 -18 20
-18 12 0 11 4 -1 27 -7 16 -14 42 -14 60 0 23 -6 33 -20 38 -13 4 -20 15 -20
31 0 21 -5 24 -35 24 -22 0 -38 6 -44 18 -9 15 -12 15 -20 2 -29 -46 -66 -90
-77 -90 -18 0 -24 49 -8 65 16 16 18 25 4 25 -5 0 -16 -16 -24 -35 -10 -24
-22 -35 -35 -35 -14 0 -21 -7 -21 -18 0 -10 -5 -23 -11 -29 -8 -8 -4 -17 12
-32 19 -17 21 -24 12 -44 -24 -52 -63 -11 -62 66 1 20 7 41 15 45 8 4 11 16 8
29 -5 19 -9 20 -26 10 -16 -10 -22 -9 -34 7 -15 21 -16 21 -33 -11 -10 -19
-15 -21 -36 -11 -18 8 -28 8 -39 -1 -21 -17 -51 -6 -64 24 -6 14 -18 25 -27
25 -12 0 -15 15 -16 73 l-2 72 -11 -72 c-6 -39 -14 -75 -18 -78 -11 -11 -49 5
-42 17 11 17 -19 -3 -33 -23 -7 -9 -30 -19 -53 -21 l-40 -4 0 1301 c0 1455 -5
1360 71 1436 23 23 57 44 86 53 61 19 313 22 331 4z m-561 -35 c-43 -85 -42
-20 -42 -2373 l0 -2235 22 -65 c12 -35 21 -66 19 -67 -9 -9 -47 104 -56 164
-6 43 -10 856 -9 2223 0 2315 -2 2258 50 2349 25 46 39 49 16 4z m-83 -422
c-1 -27 -5 -55 -10 -62 -4 -7 -3 -14 4 -17 16 -5 17 -162 1 -162 -5 0 -7 -5
-4 -11 9 -14 9 -165 0 -179 -3 -5 -1 -10 4 -10 7 0 11 -57 11 -170 0 -111 -4
-170 -10 -170 -7 0 -7 -6 0 -19 14 -27 13 -84 -2 -99 -9 -9 -9 -12 0 -12 9 0
12 -44 12 -170 0 -111 -4 -170 -10 -170 -7 0 -7 -6 0 -19 5 -11 10 -86 10
-170 0 -144 -1 -151 -20 -151 -14 0 -20 -7 -20 -23 0 -14 -20 -43 -55 -77 -38
-38 -51 -56 -42 -62 7 -5 2 -8 -15 -8 -20 0 -32 -8 -43 -30 -17 -34 -2 -43 21
-12 13 16 13 16 14 -1 0 -10 -4 -26 -9 -36 -5 -9 -6 -23 -1 -30 6 -11 10 -9
19 6 5 11 7 23 4 27 -3 3 1 6 10 6 18 0 19 3 19 58 0 17 5 32 9 32 5 0 9 -34
9 -75 0 -43 -4 -75 -10 -75 -5 0 -10 -5 -10 -11 0 -5 4 -7 10 -4 17 11 -1 -98
-22 -127 -11 -16 -15 -28 -9 -28 6 0 11 5 11 10 0 6 5 10 10 10 14 0 12 -84
-2 -98 -7 -7 -8 -12 -2 -12 5 0 10 -32 12 -70 1 -41 -2 -70 -8 -70 -5 0 -7 6
-4 14 5 14 -12 31 -31 31 -5 0 -11 15 -13 33 -2 24 -8 32 -23 32 -13 0 -19 7
-19 21 0 14 4 18 13 12 17 -11 37 -13 37 -3 0 4 -11 11 -24 14 -19 5 -23 11
-19 27 4 14 8 17 13 9 6 -9 11 -7 19 6 10 18 12 17 15 -8 2 -23 21 -17 23 8 1
24 -1 26 -33 21 -36 -6 -45 8 -22 31 7 7 8 12 2 12 -5 0 -10 30 -11 66 -1 36
-5 69 -8 72 -9 10 -54 -50 -61 -80 -4 -16 -10 -28 -15 -28 -4 0 -9 -15 -11
-32 -2 -25 -8 -34 -25 -36 -23 -3 -29 -13 -16 -25 3 -4 12 -2 20 4 9 9 13 8
13 0 0 -6 -4 -11 -10 -11 -5 0 -10 -7 -10 -15 0 -8 -9 -15 -20 -15 -13 0 -20
-7 -20 -18 0 -25 -50 -27 -117 -6 -59 19 -72 44 -23 44 17 0 39 6 50 12 15 10
22 10 32 0 6 -6 23 -12 38 -12 23 1 24 2 8 14 -10 7 -18 18 -18 24 0 12 -38
22 -100 24 -25 1 -51 7 -58 14 -14 15 -123 10 -153 -7 -13 -7 -21 -5 -28 8 -9
16 -10 16 -11 -4 0 -16 6 -23 19 -23 14 0 19 -6 18 -20 -1 -11 -7 -20 -14 -20
-7 0 -13 -5 -13 -11 0 -5 -4 -7 -10 -4 -5 3 -10 2 -10 -4 0 -5 5 -13 10 -16 6
-3 16 -19 24 -34 14 -26 14 -27 -17 -29 -24 -2 -28 0 -17 8 12 8 11 10 -7 10
-25 0 -29 -10 -12 -27 13 -13 -2 -25 -18 -15 -16 10 -20 166 -5 185 7 8 9 22
6 31 -5 14 -1 16 27 11 31 -5 33 -4 15 10 -10 8 -22 12 -26 10 -7 -4 -23 22
-33 55 -4 12 -6 11 -6 -2 -1 -24 -31 -11 -31 13 0 10 -5 19 -11 19 -6 0 -9 -6
-6 -12 8 -23 -12 -58 -33 -58 -11 0 -20 -4 -20 -9 0 -5 -3 -16 -6 -25 -4 -12
6 -21 40 -36 l46 -19 0 -86 0 -85 -37 -15 c-21 -9 -60 -17 -88 -18 -27 -1 -52
-5 -55 -8 -3 -4 -31 -11 -62 -16 l-58 -10 0 64 c0 45 -4 63 -13 63 -10 0 -12
-16 -9 -65 3 -44 1 -65 -7 -65 -6 0 -11 4 -11 10 0 5 -6 7 -14 4 -8 -3 -13
-11 -10 -18 3 -7 -7 -13 -26 -14 -16 -1 -30 2 -30 8 0 5 -4 10 -10 10 -5 0 -7
-7 -4 -15 5 -11 -1 -15 -22 -16 -86 -5 -110 -7 -124 -12 -28 -10 -87 -15 -97
-9 -6 4 -11 48 -12 97 -2 98 -16 130 -45 105 -9 -7 -16 -19 -16 -26 0 -8 -4
-14 -9 -14 -5 0 -7 -10 -4 -22 4 -16 2 -20 -5 -13 -6 6 -12 26 -14 45 -2 26 1
35 12 35 8 0 24 5 36 12 28 16 64 -8 64 -43 0 -15 6 -24 15 -24 12 0 13 -4 6
-17 -13 -26 -21 -83 -10 -83 5 0 9 15 9 34 0 19 4 38 10 41 6 4 10 -10 10 -34
0 -23 5 -41 10 -41 14 0 12 74 -2 88 -8 8 -8 12 -1 12 14 0 23 -24 23 -61 0
-16 5 -29 11 -29 8 0 10 16 6 49 -5 45 -4 50 14 48 10 -1 19 -7 19 -14 0 -7 5
-13 10 -13 6 0 10 -16 10 -36 0 -44 19 -36 21 9 2 30 2 30 9 -8 l7 -40 2 44
c1 49 17 46 24 -4 3 -24 4 -21 6 13 l1 42 -42 2 -43 1 45 6 c26 3 44 11 43 17
-1 7 -3 42 -4 79 -1 36 -5 61 -9 55 -4 -7 -5 -32 -2 -56 3 -31 1 -44 -8 -44
-9 0 -11 15 -8 54 l4 54 -50 6 c-28 4 -68 12 -88 18 -34 10 -38 15 -40 47 0
20 0 48 1 63 1 14 -3 29 -8 33 -17 10 -13 35 7 35 9 0 57 -12 105 -26 65 -19
92 -23 100 -15 14 14 30 14 21 0 -4 -7 0 -9 14 -5 12 4 26 1 36 -9 9 -9 16
-14 16 -10 0 3 5 3 11 -1 8 -4 7 -9 -2 -15 -11 -7 -9 -10 9 -15 17 -5 22 -13
21 -38 l-1 -31 -8 30 c-6 23 -8 25 -9 8 0 -12 -7 -23 -13 -26 -7 -2 0 -8 15
-12 18 -5 26 -12 23 -21 -3 -7 -1 -16 3 -18 10 -6 21 51 21 107 0 21 5 37 12
37 6 0 19 7 29 16 14 12 22 13 38 4 17 -9 19 -15 11 -30 -6 -11 -14 -20 -18
-20 -4 0 -6 -18 -4 -40 5 -50 18 -52 20 -4 1 20 4 45 8 56 6 19 7 19 25 2 24
-21 26 -64 3 -64 -14 0 -16 -8 -11 -41 4 -31 2 -38 -6 -30 -19 19 -23 13 -24
-31 0 -26 1 -32 4 -15 2 15 8 27 13 27 16 0 22 -46 17 -120 -4 -58 -2 -70 9
-66 8 3 14 1 14 -4 0 -6 5 -10 11 -10 8 0 10 31 6 108 -2 59 -6 112 -7 117 -1
6 -2 30 -1 54 1 43 1 43 32 37 l32 -6 -27 21 c-14 11 -26 29 -26 39 0 13 -5
17 -20 13 -11 -3 -20 0 -20 6 0 6 -9 11 -21 11 -12 0 -23 8 -26 20 -6 24 -21
26 -29 5 -4 -8 -18 -15 -33 -15 -14 0 -34 -7 -44 -14 -12 -9 -28 -11 -45 -7
-24 6 -28 13 -32 56 -5 46 -30 78 -30 38 0 -10 -5 -25 -10 -33 -9 -13 -11 -13
-21 0 -8 11 -9 7 -7 -21 l4 -36 -36 8 c-19 5 -38 9 -42 9 -3 0 -4 9 -1 20 3
12 0 20 -7 20 -7 0 -10 -7 -6 -15 7 -18 1 -19 -57 -1 -25 7 -48 12 -50 9 -3
-2 -8 1 -13 8 -5 9 -1 11 14 7 28 -8 28 7 2 50 -11 18 -20 35 -20 37 0 9 60 5
78 -4 90 -46 163 -58 115 -20 -11 10 -14 10 -9 2 4 -7 4 -13 -1 -13 -4 0 -21
23 -36 50 -24 42 -28 60 -26 108 l3 57 -38 3 c-37 3 -38 2 -32 -22 9 -35 -4
-33 -89 13 l-70 38 2 52 c1 50 0 51 -27 51 -28 0 -40 15 -40 51 0 10 -4 19
-10 19 -5 0 -10 -15 -10 -34 0 -18 -6 -38 -13 -44 -7 -6 -48 -12 -92 -13 l-80
-2 -2 719 c-1 395 0 725 2 732 3 9 202 12 947 12 l943 0 -1 -49z m2343 -723
c-3 -8 -6 -5 -6 6 -1 11 2 17 5 13 3 -3 4 -12 1 -19z m-28 -49 c-8 -5 -17 -9
-21 -9 -12 0 -9 25 4 38 9 9 14 9 21 -4 6 -11 5 -19 -4 -25z m-4134 -775 c48
-32 68 -54 49 -54 -10 0 -113 75 -114 83 0 12 8 8 65 -29z m150 26 c3 -5 1
-10 -4 -10 -6 0 -11 5 -11 10 0 6 2 10 4 10 3 0 8 -4 11 -10z m-123 -100 c6
-14 8 -55 5 -92 -3 -52 -1 -68 9 -68 7 0 16 -5 19 -10 4 -6 1 -9 -7 -8 -10 2
-14 -23 -16 -110 -2 -79 0 -112 7 -107 6 3 11 1 11 -4 0 -7 14 -9 35 -6 19 2
35 1 35 -4 0 -4 20 -7 45 -7 39 1 47 -2 51 -21 3 -12 4 -30 1 -40 -3 -12 -5
-9 -6 10 0 15 -5 27 -11 27 -6 0 -11 -32 -12 -72 l-2 -73 -3 73 c-2 39 -8 72
-13 72 -4 0 -16 3 -25 6 -15 6 -17 0 -13 -54 2 -48 0 -58 -10 -50 -8 8 -10 26
-6 59 5 34 3 49 -5 49 -7 0 -11 -28 -12 -82 -1 -73 -2 -79 -11 -48 -5 19 -8
56 -5 83 3 31 0 47 -7 47 -8 0 -11 -21 -8 -67 2 -50 0 -64 -7 -53 -6 8 -11 41
-11 73 0 85 -18 69 -22 -20 -4 -95 -1 -110 23 -116 12 -3 17 -12 14 -26 -3
-17 1 -21 26 -21 20 0 29 5 29 16 0 10 6 14 14 11 7 -3 19 0 25 6 10 9 15 8
25 -5 18 -24 34 -22 39 5 2 12 5 -6 6 -40 1 -61 0 -63 -24 -63 -23 0 -25 4
-25 45 0 25 -4 45 -10 45 -5 0 -10 -22 -10 -50 0 -51 -15 -69 -23 -27 -4 19
-4 18 -6 -5 -1 -25 -4 -27 -38 -25 l-38 2 -3 53 c-2 28 -8 52 -14 52 -7 0 -9
-20 -6 -55 3 -30 1 -52 -4 -49 -4 3 -8 17 -8 31 0 23 -3 25 -44 22 l-43 -4 -6
115 c-8 163 1 534 13 538 6 2 4 9 -3 16 -8 8 -11 29 -9 55 l4 41 40 -22 c22
-13 45 -34 50 -48z m118 44 c0 -8 -4 -12 -10 -9 -5 3 -10 13 -10 21 0 8 5 12
10 9 6 -3 10 -13 10 -21z m-4 -46 c10 -12 13 -18 7 -14 -10 5 -13 -6 -13 -43
0 -29 -5 -51 -10 -51 -7 0 -10 25 -8 65 1 36 3 65 4 65 0 0 9 -10 20 -22z m75
-12 c5 3 9 0 9 -5 0 -6 -4 -11 -10 -11 -5 0 -10 -7 -10 -16 0 -9 5 -12 13 -8
6 4 9 4 5 -1 -4 -4 3 -16 15 -26 12 -10 16 -18 10 -19 -7 0 -13 4 -13 9 0 5
-9 12 -19 16 -10 3 -21 18 -24 33 -5 28 3 56 11 34 2 -7 8 -10 13 -6z m1596
-128 c-3 -7 -5 -2 -5 12 0 14 2 19 5 13 2 -7 2 -19 0 -25z m-1527 -28 c0 -5
-5 -10 -11 -10 -5 0 -7 5 -4 10 3 6 8 10 11 10 2 0 4 -4 4 -10z m-195 -10 c3
-5 1 -10 -4 -10 -6 0 -11 5 -11 10 0 6 2 10 4 10 3 0 8 -4 11 -10z m-15 -51
c0 -6 -4 -7 -10 -4 -5 3 -10 11 -10 16 0 6 5 7 10 4 6 -3 10 -11 10 -16z
m1740 -95 c0 -67 -4 -103 -10 -99 -5 3 -10 -1 -10 -9 0 -9 5 -16 10 -16 6 0
10 -18 10 -40 0 -33 -3 -40 -20 -40 -18 0 -20 7 -19 108 0 71 6 123 17 155 9
26 17 47 19 47 2 0 3 -48 3 -106z m-1643 -1 c-3 -10 -5 -4 -5 12 0 17 2 24 5
18 2 -7 2 -21 0 -30z m3228 -3 c3 -5 -1 -10 -9 -10 -9 0 -16 5 -16 10 0 6 4
10 9 10 6 0 13 -4 16 -10z m175 -10 c0 -5 -2 -10 -4 -10 -3 0 -8 5 -11 10 -3
6 -1 10 4 10 6 0 11 -4 11 -10z m-1960 -38 c0 -28 -8 -46 -31 -71 -16 -18 -33
-30 -37 -27 -3 4 7 18 23 32 29 24 29 25 3 8 -34 -20 -36 -5 -4 25 13 13 27
34 30 47 9 35 16 29 16 -14z m1760 18 c0 -5 -4 -10 -10 -10 -5 0 -10 5 -10 10
0 6 5 10 10 10 6 0 10 -4 10 -10z m70 0 c0 -5 -2 -10 -4 -10 -3 0 -8 5 -11 10
-3 6 -1 10 4 10 6 0 11 -4 11 -10z m521 -25 c20 -42 11 -46 -13 -8 -14 24 -18
25 -23 11 -4 -11 0 -24 10 -34 13 -13 14 -19 4 -25 -17 -10 -29 -2 -22 16 3 9
-1 15 -10 15 -8 0 -18 -7 -21 -16 -5 -13 -9 -13 -31 3 -33 24 -31 32 9 29 24
-2 38 3 52 20 10 13 21 23 24 23 3 0 12 -15 21 -34z m-561 15 c0 -5 -2 -10 -4
-10 -3 0 -8 5 -11 10 -3 6 -1 10 4 10 6 0 11 -4 11 -10z m217 -12 c-3 -8 -6
-5 -6 6 -1 11 2 17 5 13 3 -3 4 -12 1 -19z m93 12 c0 -5 -5 -10 -11 -10 -5 0
-7 5 -4 10 3 6 8 10 11 10 2 0 4 -4 4 -10z m281 -13 c-1 -12 -15 -9 -19 4 -3
6 1 10 8 8 6 -3 11 -8 11 -12z m-3650 -45 c1 -21 2 -23 7 -7 l5 20 8 -20 c7
-17 8 -16 8 8 1 15 5 27 11 27 5 0 7 -7 4 -15 -4 -8 -1 -15 5 -15 6 0 11 7 11
15 0 8 5 15 11 15 6 0 9 -7 5 -15 -3 -8 -1 -15 4 -15 6 0 10 -16 10 -35 0 -19
-4 -35 -10 -35 -5 0 -10 8 -10 18 0 12 -4 10 -13 -8 -7 -14 -9 -26 -5 -28 21
-9 4 -22 -27 -22 -35 0 -35 0 -35 44 0 24 -3 58 -7 76 -4 24 -3 31 5 26 7 -4
13 -19 13 -34z m2989 -7 c-7 -8 -17 -15 -22 -15 -6 0 -5 7 2 15 7 8 17 15 22
15 6 0 5 -7 -2 -15z m-2870 -41 c0 -21 -4 -33 -10 -29 -5 3 -10 22 -10 41 0
21 4 33 10 29 6 -3 10 -22 10 -41z m30 1 c0 -19 -4 -35 -10 -35 -5 0 -10 16
-10 35 0 19 5 35 10 35 6 0 10 -16 10 -35z m-324 -28 c4 -67 -5 -97 -27 -97
-24 0 -25 26 -1 32 16 5 18 13 14 64 -2 33 -1 55 4 51 4 -4 9 -27 10 -50z
m3228 27 c9 -3 14 -10 11 -15 -7 -10 -35 0 -35 12 0 11 3 11 24 3z m96 -14 c0
-10 -9 -24 -21 -30 -26 -14 -35 -7 -14 10 8 7 15 19 15 26 0 8 5 14 10 14 6 0
10 -9 10 -20z m-2358 -27 c17 -15 18 -15 18 0 0 24 17 21 23 -5 7 -26 -10 -61
-26 -55 -7 2 -16 13 -22 25 -5 12 -13 22 -17 22 -5 0 -8 7 -8 15 0 19 9 19 32
-2z m448 -2 c0 -5 -9 -11 -20 -14 -22 -6 -28 8 -7 16 19 8 27 8 27 -2z m2210
-11 c0 -5 -4 -10 -10 -10 -5 0 -10 5 -10 10 0 6 5 10 10 10 6 0 10 -4 10 -10z
m-3273 -6 c-3 -3 -12 -4 -19 -1 -8 3 -5 6 6 6 11 1 17 -2 13 -5z m1011 -22 c4
-26 -6 -28 -37 -6 -17 12 -20 19 -11 24 21 13 45 4 48 -18z m2202 12 c0 -8 -5
-12 -10 -9 -6 4 -8 11 -5 16 9 14 15 11 15 -7z m-1920 -16 c0 -10 -7 -18 -14
-18 -10 0 -16 -14 -19 -42 -2 -29 -4 -23 -3 17 0 51 3 61 18 61 11 0 18 -8 18
-18z m1682 -22 c-4 -7 -8 -5 -10 7 -2 9 -10 17 -18 17 -8 0 -12 5 -9 11 5 7
13 4 26 -7 10 -9 15 -22 11 -28z m-1912 19 c0 -8 -9 -15 -20 -15 -11 0 -20 7
-20 15 0 8 9 15 20 15 11 0 20 -7 20 -15z m-180 1 c0 -3 -4 -8 -10 -11 -5 -3
-10 -1 -10 4 0 6 5 11 10 11 6 0 10 -2 10 -4z m2605 -16 c3 -5 1 -10 -4 -10
-6 0 -11 5 -11 10 0 6 2 10 4 10 3 0 8 -4 11 -10z m185 -15 c0 -8 5 -15 10
-15 6 0 10 -9 10 -21 0 -23 -27 -55 -38 -45 -3 4 0 11 8 16 12 8 13 13 3 30
-16 24 -17 50 -3 50 6 0 10 -7 10 -15z m-967 -9 c4 -10 1 -13 -9 -9 -15 6 -19
23 -5 23 5 0 11 -7 14 -14z m767 -26 c0 -18 -19 -11 -30 11 -11 19 -10 20 9 9
12 -6 21 -15 21 -20z m-2490 -4 c0 -3 -4 -8 -10 -11 -5 -3 -10 -1 -10 4 0 6 5
11 10 11 6 0 10 -2 10 -4z m2620 -17 c0 -5 -4 -9 -10 -9 -5 0 -10 7 -10 16 0
8 5 12 10 9 6 -3 10 -10 10 -16z m-70 1 c0 -5 -2 -10 -4 -10 -3 0 -8 5 -11 10
-3 6 -1 10 4 10 6 0 11 -4 11 -10z m-2515 -10 c3 -5 1 -10 -4 -10 -6 0 -11 5
-11 10 0 6 2 10 4 10 3 0 8 -4 11 -10z m1875 6 c0 -3 -4 -8 -10 -11 -5 -3 -10
-1 -10 4 0 6 5 11 10 11 6 0 10 -2 10 -4z m-2058 -24 c-7 -5 -10 -16 -6 -25 7
-18 24 -23 24 -7 0 6 6 10 13 10 16 0 37 -46 37 -82 0 -35 29 -110 41 -103 4
3 20 -8 35 -24 15 -17 31 -28 35 -25 5 3 9 0 9 -5 0 -6 6 -10 12 -9 7 2 14 -8
16 -21 3 -18 6 -21 12 -11 9 14 15 -11 24 -90 2 -19 7 -48 10 -65 3 -16 7 -54
10 -84 4 -48 16 -70 38 -71 3 0 12 -16 18 -35 6 -19 18 -35 26 -35 7 0 16 -12
20 -27 16 -70 36 -132 42 -132 23 4 42 -3 37 -12 -4 -6 -13 -8 -21 -5 -8 3
-14 0 -14 -5 0 -6 9 -9 19 -6 15 4 20 -2 24 -27 2 -17 1 -38 -4 -47 -4 -8 -4
-33 1 -54 10 -42 5 -58 -10 -35 -6 8 -10 10 -10 5 0 -6 6 -17 13 -24 10 -11 9
-13 -5 -8 -14 5 -18 1 -18 -16 0 -13 -3 -17 -8 -11 -7 11 -23 11 -68 0 -13 -4
-29 0 -37 8 -9 9 -19 11 -28 5 -8 -5 -30 -7 -49 -4 -19 2 -27 2 -17 -1 13 -4
6 -12 -30 -30 -27 -13 -55 -24 -63 -23 -43 4 -81 -2 -75 -11 4 -6 -9 -10 -32
-10 -30 0 -35 3 -23 11 12 9 11 9 -5 3 -38 -14 -85 -17 -85 -5 0 16 -83 8 -88
-7 -2 -7 -11 -12 -20 -12 -15 0 -15 2 -2 10 8 5 11 10 7 10 -5 0 -23 -10 -40
-22 -37 -27 -128 -36 -182 -18 -21 7 -55 28 -77 48 -22 20 -51 37 -66 39 -73
11 -151 1 -124 -16 7 -4 -18 -7 -54 -7 -43 1 -69 -3 -71 -11 -4 -12 -65 -9
-105 6 -14 5 -29 7 -32 4 -3 -4 -6 1 -6 10 0 8 6 18 13 21 6 3 2 3 -10 0 -26
-6 -28 -1 -13 27 12 22 42 27 34 5 -7 -17 26 -30 40 -16 7 7 7 11 1 10 -28 -6
-36 0 -25 19 11 21 -2 37 -20 26 -21 -13 -9 33 12 48 19 13 20 16 6 16 -10 1
-18 -4 -18 -9 0 -7 -8 -6 -23 1 -19 11 -20 10 -9 -3 10 -13 10 -17 -3 -22 -9
-3 -13 -11 -9 -17 4 -8 3 -9 -4 -5 -7 4 -12 3 -12 -2 0 -10 -32 -27 -70 -38
-23 -6 -24 -6 -10 11 14 17 13 18 -3 12 -11 -4 -16 -3 -12 3 3 6 15 10 26 10
11 0 17 -4 14 -10 -3 -5 1 -10 9 -10 23 0 20 17 -5 30 -16 9 -18 14 -9 25 13
15 4 39 -10 30 -5 -3 -12 -1 -15 5 -4 6 -3 10 2 9 4 -1 20 -1 36 0 31 1 38 21
7 21 -14 0 -20 7 -20 23 1 20 1 21 11 4 8 -13 18 -17 34 -13 18 5 23 2 20 -12
-2 -9 -4 -21 -4 -25 -1 -5 -5 -6 -9 -3 -4 2 -14 1 -22 -5 -9 -5 -10 -9 -3 -9
6 0 18 -3 27 -6 10 -4 16 -1 16 8 0 8 9 23 21 34 19 17 19 19 2 25 -15 7 -15
8 5 8 13 1 20 5 17 11 -3 6 -16 8 -28 6 -12 -1 -16 -1 -9 1 19 7 14 22 -6 16
-10 -2 -26 5 -36 16 -11 12 -14 21 -9 21 6 0 16 -7 23 -15 7 -9 19 -14 25 -11
7 2 16 1 21 -4 5 -5 10 7 12 27 1 20 10 46 20 57 10 11 11 16 3 11 -11 -6 -12
1 -7 40 4 26 10 54 14 63 4 11 2 13 -9 7 -11 -7 -11 -5 1 11 8 10 20 22 25 26
6 5 5 8 -3 8 -10 0 -10 3 0 14 7 7 20 11 28 9 13 -4 13 -4 0 6 -13 10 -13 13
2 21 31 19 46 89 51 235 5 145 13 188 28 163 7 -11 9 -11 9 1 0 7 6 11 15 7 8
-3 15 0 15 6 0 7 6 6 16 -2 12 -11 15 -32 13 -97 -1 -46 1 -87 5 -91 4 -4 7
-2 6 3 -5 22 1 24 20 5 11 -11 26 -17 35 -14 14 6 13 8 -2 19 -10 8 -15 17
-10 21 4 4 7 1 7 -7 0 -28 20 15 21 46 0 19 3 25 7 15 4 -8 19 -15 34 -15 14
-1 25 2 23 6 -3 3 2 14 9 24 9 13 15 15 20 7 4 -7 2 -12 -5 -12 -10 0 -10 -3
-1 -12 8 -8 15 -8 27 2 13 11 13 15 3 21 -7 5 -8 9 -2 9 5 0 11 17 13 38 1 20
6 55 9 77 7 37 10 40 40 41 18 1 44 7 58 15 23 12 27 11 35 -4 13 -23 36 -22
44 3 7 22 11 23 68 20 21 -1 37 3 37 9 0 7 40 11 118 11 64 0 111 -4 104 -8z
m284 -11 c-30 -13 -36 -19 -24 -24 9 -3 19 -1 21 6 2 7 7 10 10 7 3 -3 -3 -16
-14 -29 -14 -17 -19 -19 -19 -7 0 10 -6 13 -15 10 -18 -7 -20 19 -2 34 11 9
44 18 72 20 6 0 -8 -7 -29 -17z m2444 15 c0 -3 -4 -8 -10 -11 -5 -3 -10 -1
-10 4 0 6 5 11 10 11 6 0 10 -2 10 -4z m-293 -38 c-3 -8 -6 -5 -6 6 -1 11 2
17 5 13 3 -3 4 -12 1 -19z m-1134 6 c9 -10 -4 -34 -19 -34 -8 0 -14 9 -14 20
0 19 19 27 33 14z m745 -3 c17 11 24 11 34 1 6 -6 8 -15 3 -19 -4 -5 -10 -2
-12 5 -4 10 -8 9 -18 -5 -11 -15 -15 -15 -29 -4 -9 7 -16 19 -16 25 0 6 4 6 9
-2 7 -12 12 -12 29 -1z m-158 -16 c0 -8 -4 -15 -10 -15 -5 0 -10 7 -10 15 0 8
5 15 10 15 6 0 10 -7 10 -15z m-1437 -2 c-15 -6 -17 -33 -3 -33 6 0 10 -12 10
-26 0 -21 -3 -24 -14 -15 -15 12 -27 61 -19 73 2 5 12 8 21 7 11 0 12 -3 5 -6z
m1387 -33 c0 -10 -31 -22 -38 -16 -2 3 -2 12 1 20 6 15 37 12 37 -4z m-3175 0
c-3 -5 1 -10 9 -10 9 0 16 -4 16 -10 0 -5 -18 -10 -39 -10 -29 0 -41 -5 -44
-17 -2 -10 -4 -3 -3 14 1 24 5 31 16 28 8 -2 22 0 30 5 19 12 23 12 15 0z
m1750 0 c3 -6 -4 -10 -17 -10 -18 0 -20 2 -8 10 19 12 18 12 25 0z m635 -4
c-6 -8 -18 -12 -26 -9 -23 9 -16 23 12 23 22 0 24 -2 14 -14z m1810 -6 c0 -13
-7 -20 -20 -20 -23 0 -25 5 -7 25 17 20 27 18 27 -5z m-4273 -22 c-3 -7 -5 -2
-5 12 0 14 2 19 5 13 2 -7 2 -19 0 -25z m2714 -18 c-3 -28 -21 -44 -34 -31 -4
4 -5 20 -1 35 9 36 41 32 35 -4z m-1844 -26 c-9 -9 -28 6 -21 18 4 6 10 6 17
-1 6 -6 8 -13 4 -17z m2573 20 c0 -8 -32 -33 -41 -34 -4 0 -10 7 -13 16 -4 12
-2 15 9 11 8 -4 17 -2 20 3 7 11 25 13 25 4z m-3348 -29 c3 -16 1 -25 -7 -25
-8 0 -10 9 -7 25 2 14 6 25 7 25 1 0 5 -11 7 -25z m4176 -16 c3 -34 1 -36 -22
-32 -20 4 -26 1 -26 -12 0 -16 -2 -16 -22 -2 -34 22 -29 43 9 39 33 -4 55 14
29 24 -24 9 -19 26 7 22 17 -2 23 -10 25 -39z m-4236 -10 c5 -3 3 -9 -6 -12
-12 -5 -16 0 -15 21 0 16 3 21 6 12 3 -8 10 -18 15 -21z m225 -26 c-9 -8 -47
7 -47 19 0 5 7 8 15 5 8 -4 18 -1 22 6 5 8 9 6 11 -6 2 -10 1 -21 -1 -24z
m-77 3 c0 -2 -7 -7 -16 -10 -8 -3 -12 -2 -9 4 6 10 25 14 25 6z m25 -6 c3 -5
1 -10 -4 -10 -6 0 -11 5 -11 10 0 6 2 10 4 10 3 0 8 -4 11 -10z m1893 -7 c2
-7 -3 -13 -12 -13 -9 0 -16 4 -16 9 0 5 -8 12 -17 15 -10 2 -5 4 11 3 16 -1
31 -8 34 -14z m-1970 -13 c-7 -10 -14 -18 -15 -16 -6 6 9 36 18 36 5 0 4 -9
-3 -20z m-31 -12 c-3 -8 -6 -5 -6 6 -1 11 2 17 5 13 3 -3 4 -12 1 -19z m3189
0 c10 -12 13 -18 7 -14 -7 4 -13 2 -13 -3 0 -6 7 -11 15 -11 17 0 19 -9 5 -30
-9 -13 -12 -13 -23 1 -7 9 -22 19 -34 23 -22 7 -22 8 -7 32 20 30 26 30 50 2z
m834 -38 c0 -5 7 -10 16 -10 8 0 13 -4 10 -9 -9 -13 -46 -1 -46 15 0 8 5 14
10 14 6 0 10 -4 10 -10z m130 -30 c11 -7 12 -12 3 -21 -13 -13 -33 -4 -33 17
0 16 9 18 30 4z m-610 -41 c0 -10 -5 -21 -12 -25 -7 -5 -9 -2 -5 8 4 11 -2 18
-19 22 -34 9 -30 23 6 18 21 -3 30 -10 30 -23z m-1525 1 c10 -11 28 -20 41
-20 27 0 32 -14 35 -100 l3 -65 -82 -3 -82 -3 0 86 c0 78 2 85 20 85 13 0 20
7 20 20 0 11 6 20 13 20 8 0 22 -9 32 -20z m1130 -20 c3 -5 1 -10 -4 -10 -6 0
-11 5 -11 10 0 6 2 10 4 10 3 0 8 -4 11 -10z m1021 -36 c-4 -9 -9 -15 -11 -12
-3 3 -3 13 1 22 4 9 9 15 11 12 3 -3 3 -13 -1 -22z m-26 -15 c0 -10 -4 -19
-10 -19 -5 0 -10 12 -10 26 0 14 4 23 10 19 6 -3 10 -15 10 -26z m-2490 -55
c0 -8 -4 -14 -9 -14 -6 0 -9 9 -8 19 1 22 17 18 17 -5z m-1710 -104 c0 -5 -4
-10 -10 -10 -5 0 -10 5 -10 10 0 6 5 10 10 10 6 0 10 -4 10 -10z m3890 -161
c0 -18 -22 -20 -35 -3 -24 32 -19 47 10 28 14 -9 25 -20 25 -25z m-880 -19 c0
-5 -4 -10 -10 -10 -5 0 -10 5 -10 10 0 6 5 10 10 10 6 0 10 -4 10 -10z m1182
-62 c-15 -15 -26 -4 -18 18 5 13 9 15 18 6 9 -9 9 -15 0 -24z m-2079 5 c-7 -2
-19 -2 -25 0 -7 3 -2 5 12 5 14 0 19 -2 13 -5z m1187 -15 c0 -6 -6 -5 -15 2
-8 7 -15 14 -15 16 0 2 7 1 15 -2 8 -4 15 -11 15 -16z m107 -10 c9 -10 11 -18
5 -18 -6 0 -14 5 -17 10 -11 17 -43 11 -65 -12 l-20 -22 11 32 c9 27 15 32 40
30 17 -1 37 -10 46 -20z m753 2 c0 -5 -4 -10 -10 -10 -5 0 -10 5 -10 10 0 6 5
10 10 10 6 0 10 -4 10 -10z m-3800 -16 c0 -8 -5 -12 -10 -9 -6 4 -8 11 -5 16
9 14 15 11 15 -7z m3137 10 c-3 -3 -12 -4 -19 -1 -8 3 -5 6 6 6 11 1 17 -2 13
-5z m-202 -52 c-3 -3 -11 0 -18 7 -9 10 -8 11 6 5 10 -3 15 -9 12 -12z m-3062
-4 c9 -7 17 -30 19 -50 1 -25 7 -38 16 -38 8 0 12 6 8 15 -3 8 -1 15 4 15 18
0 11 -32 -8 -37 -10 -2 -22 -14 -27 -26 -8 -17 -20 -23 -57 -25 -72 -5 -88 8
-88 71 0 29 4 57 8 64 4 6 28 13 52 16 25 2 48 4 51 5 3 1 13 -4 22 -10z
m3139 -8 c29 -17 30 -20 12 -26 -10 -4 -23 -9 -28 -12 -5 -3 -7 4 -4 16 6 21
-15 38 -33 26 -5 -3 -9 0 -9 5 0 17 26 13 62 -9z m38 10 c0 -5 -4 -10 -10 -10
-5 0 -10 5 -10 10 0 6 5 10 10 10 6 0 10 -4 10 -10z m-259 -38 c-7 -2 -18 1
-23 6 -8 8 -4 9 13 5 13 -4 18 -8 10 -11z m176 12 c-3 -3 -12 -4 -19 -1 -8 3
-5 6 6 6 11 1 17 -2 13 -5z m-3043 -146 c-3 -4 -11 -5 -19 -1 -21 7 -19 12 4
10 11 0 18 -5 15 -9z m1399 -5 c8 -8 -12 -33 -26 -33 -6 0 -2 7 9 16 12 10 14
14 4 11 -8 -2 -26 -7 -40 -11 l-25 -7 25 15 c27 17 43 19 53 9z m-1313 -7 c0
-2 -9 -6 -20 -9 -11 -3 -20 -1 -20 4 0 5 9 9 20 9 11 0 20 -2 20 -4z m410 -6
c0 -5 -15 -9 -32 -9 l-33 1 30 8 c17 4 31 8 33 9 1 0 2 -3 2 -9z m-400 -14 c0
-11 -19 -15 -25 -6 -3 5 1 10 9 10 9 0 16 -2 16 -4z m-64 -21 c-10 -8 -23 -12
-28 -9 -14 9 2 24 25 24 21 -1 21 -1 3 -15z m89 -13 c-3 -3 -11 0 -18 7 -9 10
-8 11 6 5 10 -3 15 -9 12 -12z m-50 -20 c-3 -3 -11 0 -18 7 -9 10 -8 11 6 5
10 -3 15 -9 12 -12z m918 1 c-7 -2 -21 -2 -30 0 -10 3 -4 5 12 5 17 0 24 -2
18 -5z m-19 -118 c21 -28 20 -78 -3 -106 -19 -24 -21 -24 -220 -24 -187 0
-202 1 -220 20 -32 33 -31 85 1 115 22 20 32 21 225 18 189 -3 203 -4 217 -23z
m-1154 -41 c0 -8 -4 -12 -10 -9 -5 3 -10 2 -10 -4 0 -5 8 -12 18 -14 15 -4 15
-5 0 -6 -23 -1 -32 17 -18 34 16 19 20 19 20 -1z m115 -5 c0 -7 -8 -15 -17
-17 -12 -2 -15 2 -11 18 6 23 28 22 28 -1z m244 5 c4 3 8 -1 8 -9 0 -8 -6 -15
-14 -15 -7 0 -13 10 -12 23 0 12 3 16 6 9 2 -6 8 -10 12 -8z m68 -15 c1 -19 1
-20 -4 -4 -3 11 -10 24 -17 28 -7 6 -6 7 4 4 8 -2 16 -14 17 -28z m50 -6 c-3
-10 -5 -4 -5 12 0 17 2 24 5 18 2 -7 2 -21 0 -30z m60 17 c4 -12 3 -13 -5 -1
-5 7 -15 10 -21 7 -6 -4 -11 -2 -11 4 0 17 33 8 37 -10z m818 11 c3 -6 -3 -15
-12 -21 -17 -11 -17 -11 0 -6 9 3 17 1 17 -4 0 -6 -9 -10 -20 -10 -15 0 -20 7
-20 25 0 25 23 35 35 16z m55 -18 c-1 -24 -2 -26 -11 -10 -5 9 -7 22 -4 27 10
17 15 11 15 -17z m52 -2 c2 -17 1 -28 -4 -25 -4 3 -8 14 -8 25 0 11 -4 17 -10
14 -5 -3 -10 -1 -10 4 0 25 28 9 32 -18z m32 14 c-4 -8 -8 -15 -10 -15 -2 0
-4 7 -4 15 0 8 4 15 10 15 5 0 7 -7 4 -15z m63 -16 c1 -24 1 -24 -4 -1 -3 16
-10 22 -19 18 -9 -3 -12 -1 -9 5 11 17 30 4 32 -22z m146 11 c-3 -11 -7 -20
-8 -20 -1 0 -5 9 -8 20 -3 12 0 20 8 20 8 0 11 -8 8 -20z m-1634 -12 c0 -13
-3 -17 -6 -10 -4 10 -8 10 -21 0 -12 -9 -11 -6 2 10 24 27 26 27 25 0z m384 7
c4 -8 2 -17 -3 -20 -6 -4 -10 3 -10 14 0 25 6 27 13 6z m930 0 c4 -8 2 -17 -3
-20 -6 -4 -10 3 -10 14 0 25 6 27 13 6z m207 -15 c0 -5 -5 -10 -11 -10 -5 0
-7 5 -4 10 3 6 8 10 11 10 2 0 4 -4 4 -10z m-150 -4 c0 -3 -4 -8 -10 -11 -5
-3 -10 -1 -10 4 0 6 5 11 10 11 6 0 10 -2 10 -4z"/>
<path d="M2295 4850 c-3 -5 -2 -10 4 -10 5 0 12 -10 14 -22 4 -20 4 -20 6 4 1
28 -13 45 -24 28z"/>
<path d="M2334 4848 c-5 -8 -2 -9 9 -5 19 7 24 -17 7 -28 -15 -9 -12 -25 6
-25 8 0 12 5 9 10 -4 6 -1 17 5 25 6 8 9 19 5 25 -8 14 -32 13 -41 -2z"/>
<path d="M2426 4838 c-15 -21 -15 -23 1 -30 29 -11 33 -9 33 16 0 34 -16 41
-34 14z m24 -8 c0 -5 -5 -10 -11 -10 -5 0 -7 5 -4 10 3 6 8 10 11 10 2 0 4 -4
4 -10z"/>
<path d="M2478 4836 c-6 -30 16 -56 33 -39 15 15 7 57 -12 61 -11 2 -18 -6
-21 -22z m32 10 c0 -3 -4 -8 -10 -11 -5 -3 -10 -1 -10 4 0 6 5 11 10 11 6 0
10 -2 10 -4z m0 -36 c0 -5 -4 -10 -10 -10 -5 0 -10 5 -10 10 0 6 5 10 10 10 6
0 10 -4 10 -10z"/>
<path d="M3960 4825 c0 -22 4 -34 10 -30 6 3 10 17 10 30 0 13 -4 27 -10 30
-6 4 -10 -8 -10 -30z"/>
<path d="M4020 4851 c-11 -8 -12 -13 -4 -21 16 -16 69 -8 69 10 0 18 -43 25
-65 11z m48 -9 c8 -6 2 -9 -18 -9 -20 0 -26 3 -18 9 7 4 15 8 18 8 3 0 11 -4
18 -8z"/>
<path d="M4140 4831 c0 -19 6 -21 56 -21 47 0 55 3 52 18 -2 13 -15 18 -56 20
-47 3 -52 1 -52 -17z"/>
<path d="M3930 4820 c0 -11 5 -20 10 -20 6 0 10 9 10 20 0 11 -4 20 -10 20 -5
0 -10 -9 -10 -20z"/>
<path d="M3900 4816 c0 -8 5 -18 10 -21 6 -3 10 3 10 14 0 12 -4 21 -10 21 -5
0 -10 -6 -10 -14z"/>
<path d="M3875 4811 c-3 -5 -1 -12 5 -16 5 -3 10 1 10 9 0 18 -6 21 -15 7z"/>
<path d="M2590 4553 c0 -18 5 -33 10 -33 6 0 10 5 10 10 0 17 28 11 33 -7 3
-10 5 0 5 22 0 22 -2 32 -5 23 -2 -10 -9 -18 -15 -18 -6 0 -17 8 -24 18 -12
15 -13 14 -14 -15z"/>
<path d="M2663 4544 c-3 -8 -1 -20 5 -26 16 -16 42 -2 42 22 0 24 -38 28 -47
4z m35 -5 c-2 -6 -8 -10 -13 -10 -5 0 -11 4 -13 10 -2 6 4 11 13 11 9 0 15 -5
13 -11z"/>
<path d="M2720 4534 c0 -33 33 -30 38 4 3 17 -2 22 -17 22 -16 0 -21 -6 -21
-26z"/>
<path d="M2774 4545 c-4 -9 -2 -21 4 -27 15 -15 44 -1 40 19 -4 23 -36 29 -44
8z m34 -6 c-2 -6 -8 -10 -13 -10 -5 0 -11 4 -13 10 -2 6 4 11 13 11 9 0 15 -5
13 -11z"/>
<path d="M2830 4541 c0 -25 18 -37 33 -22 9 9 8 11 -5 6 -12 -5 -18 -2 -18 8
0 9 8 18 18 20 13 4 11 5 -5 6 -17 1 -23 -5 -23 -18z"/>
<path d="M2888 4535 c2 -14 6 -25 7 -25 1 0 5 11 7 25 3 16 1 25 -7 25 -8 0
-10 -9 -7 -25z"/>
<path d="M2930 4536 c0 -22 3 -27 11 -19 8 8 8 16 0 30 -9 16 -10 14 -11 -11z"/>
<path d="M2957 4553 c-3 -5 -1 -17 4 -28 7 -17 8 -17 8 8 1 27 -4 34 -12 20z"/>
<path d="M2254 4250 c-39 -16 -66 -61 -60 -100 12 -78 101 -106 157 -51 50 50
33 127 -33 150 -36 13 -36 13 -64 1z m44 -52 c5 -7 11 -22 13 -33 3 -24 -17
-75 -30 -75 -14 0 -21 28 -8 34 7 2 5 5 -4 5 -15 1 -15 7 -7 41 11 42 19 48
36 28z"/>
<path d="M2304 3829 c-42 -12 -101 -79 -110 -124 -13 -71 30 -155 92 -181 36
-15 112 -19 129 -6 6 4 11 24 11 45 2 46 2 47 50 50 l39 2 3 55 c4 70 -23 115
-88 148 -47 23 -75 26 -126 11z m-4 -89 c0 -5 -10 -10 -22 -9 -22 0 -22 1 -3
9 11 5 21 9 23 9 1 1 2 -3 2 -9z m85 -10 c12 -14 16 -28 12 -49 -5 -24 -3 -29
8 -24 20 7 19 -14 0 -25 -9 -4 -19 -21 -23 -37 -10 -37 -39 -56 -52 -35 -16
24 -12 36 18 47 26 10 25 11 -17 12 -35 1 -42 4 -33 13 7 7 12 22 12 34 0 13
5 26 11 29 6 4 8 14 5 22 -14 36 30 46 59 13z"/>
<path d="M2340 3696 c0 -9 7 -16 16 -16 17 0 14 22 -4 28 -7 2 -12 -3 -12 -12z"/>
<path d="M3242 3823 c-18 -9 -45 -32 -60 -51 -23 -30 -27 -46 -27 -98 0 -70
17 -102 75 -141 34 -24 110 -32 110 -12 0 6 10 8 23 5 12 -3 17 -3 10 0 -7 3
-9 12 -6 20 7 19 23 18 23 -1 0 -24 16 -18 48 20 72 81 46 207 -50 254 -53 25
-101 27 -146 4z m128 -142 c0 -25 -4 -32 -15 -28 -8 4 -17 2 -20 -3 -10 -17
-25 -11 -25 10 0 14 5 18 16 13 9 -3 20 0 24 8 13 21 2 29 -26 19 -29 -11 -61
-13 -51 -3 4 3 0 11 -9 17 -13 10 -10 15 23 33 l38 21 22 -27 c14 -16 23 -39
23 -60z m47 3 c-3 -3 -13 8 -21 25 -23 43 -19 52 5 13 12 -18 19 -35 16 -38z
m28 -34 c10 -11 16 -20 13 -20 -3 0 -13 9 -23 20 -10 11 -16 20 -13 20 3 0 13
-9 23 -20z m-157 0 c7 0 -1 -15 -17 -32 -17 -18 -31 -36 -31 -40 0 -5 -9 -8
-21 -8 -17 0 -19 4 -13 23 20 63 24 69 47 63 12 -3 28 -6 35 -6z m95 -40 c3
-11 1 -20 -4 -20 -5 0 -9 9 -9 20 0 11 2 20 4 20 2 0 6 -9 9 -20z"/>
<path d="M3720 3805 c-19 -13 -41 -24 -47 -24 -21 -1 -43 -58 -43 -110 0 -50
15 -77 23 -44 2 10 3 6 1 -9 -9 -77 115 -134 209 -94 51 21 70 49 62 88 -21
98 -106 219 -153 217 -9 0 -33 -11 -52 -24z m100 -116 c0 -5 -4 -9 -10 -9 -5
0 -10 7 -10 16 0 8 5 12 10 9 6 -3 10 -10 10 -16z m0 -43 c0 -3 -4 -8 -10 -11
-5 -3 -10 -1 -10 4 0 6 5 11 10 11 6 0 10 -2 10 -4z"/>
<path d="M3179 3803 c-13 -16 -12 -17 4 -4 16 13 21 21 13 21 -2 0 -10 -8 -17
-17z"/>
<path d="M2801 3718 c-6 -17 -4 -26 8 -35 22 -16 32 -7 29 28 -3 34 -25 39
-37 7z"/>
<path d="M2893 3693 c-9 -3 -9 -12 -2 -29 5 -14 9 -35 9 -47 0 -18 -2 -19 -11
-7 -8 12 -9 12 -7 -5 1 -11 -1 -26 -5 -32 -5 -8 -4 -13 2 -13 6 0 11 4 11 10
0 9 64 25 76 19 11 -7 33 46 34 79 0 32 0 32 -47 31 -27 -1 -53 -4 -60 -6z"/>
<path d="M2688 3663 c-13 -3 -15 -10 -7 -35 20 -71 83 -117 162 -118 30 0 37
4 37 20 0 16 -7 20 -36 20 -34 0 -36 2 -30 25 5 18 2 25 -9 25 -10 0 -15 10
-15 29 0 21 -6 30 -22 35 -25 6 -54 6 -80 -1z"/>
<path d="M4310 3656 c0 -9 5 -16 10 -16 6 0 10 4 10 9 0 6 -4 13 -10 16 -5 3
-10 -1 -10 -9z"/>
<path d="M2456 3587 c-20 -15 -19 -58 2 -65 6 -2 12 1 12 8 0 6 -4 8 -10 5 -5
-3 -10 3 -10 14 0 12 4 21 9 21 5 0 11 7 15 15 7 18 5 19 -18 2z"/>
<path d="M2490 3580 c0 -5 5 -10 11 -10 5 0 7 5 4 10 -3 6 -8 10 -11 10 -2 0
-4 -4 -4 -10z"/>
<path d="M2705 3540 c10 -11 20 -20 23 -20 3 0 -3 9 -13 20 -10 11 -20 20 -23
20 -3 0 3 -9 13 -20z"/>
<path d="M2485 3530 c-3 -5 -2 -10 4 -10 5 0 13 5 16 10 3 6 2 10 -4 10 -5 0
-13 -4 -16 -10z"/>
<path d="M2500 3100 c0 -25 4 -30 23 -29 16 1 18 2 5 6 -21 5 -24 23 -5 23 8
0 8 3 -2 9 -11 7 -10 10 5 14 16 4 16 5 -3 6 -19 1 -23 -4 -23 -29z"/>
<path d="M2970 3099 c0 -23 3 -30 9 -20 5 8 11 9 15 3 3 -6 21 -10 39 -9 25 2
32 6 32 22 0 28 -33 32 -43 4 -8 -22 -8 -22 -30 6 l-22 28 0 -34z m87 -15 c-9
-9 -28 6 -21 18 4 6 10 6 17 -1 6 -6 8 -13 4 -17z"/>
<path d="M2270 3093 c-17 -22 -28 -27 -56 -24 -30 2 -34 0 -34 -21 0 -40 35
-93 60 -93 13 0 25 -6 28 -13 5 -16 32 -15 32 2 0 13 38 14 59 1 16 -9 31 3
24 21 -3 9 -12 12 -25 8 -17 -5 -18 -4 -6 15 19 31 37 33 44 6 3 -14 9 -25 13
-25 22 0 42 102 22 114 -4 3 -23 1 -42 -4 -23 -7 -35 -7 -37 0 -6 17 -33 40
-47 40 -7 0 -23 -12 -35 -27z m60 -7 c0 -2 -7 -6 -15 -10 -8 -3 -15 -1 -15 4
0 6 7 10 15 10 8 0 15 -2 15 -4z m10 -42 c0 -8 -4 -12 -10 -9 -5 3 -10 10 -10
16 0 5 5 9 10 9 6 0 10 -7 10 -16z"/>
<path d="M2560 3109 c0 -5 4 -8 9 -4 5 3 12 -5 14 -17 4 -20 4 -19 6 5 1 18
-4 27 -14 27 -8 0 -15 -5 -15 -11z"/>
<path d="M2601 3098 c-1 -16 4 -28 9 -28 12 0 12 8 0 35 -8 18 -9 17 -9 -7z"/>
<path d="M2627 3107 c-3 -8 -1 -20 4 -28 6 -10 9 -7 9 14 0 29 -5 35 -13 14z"/>
<path d="M2668 3111 c8 -4 14 -12 14 -16 0 -4 -6 -12 -14 -16 -10 -7 -9 -9 5
-9 12 0 17 8 17 25 0 17 -5 25 -17 25 -14 0 -15 -2 -5 -9z"/>
<path d="M2718 3111 c11 -7 10 -9 -3 -15 -19 -7 -11 -26 11 -26 8 0 14 10 14
25 0 17 -5 25 -17 25 -14 0 -15 -2 -5 -9z"/>
<path d="M2757 3113 c-8 -18 -1 -38 16 -41 13 -3 17 3 17 22 0 24 -23 37 -33
19z"/>
<path d="M2804 3106 c-8 -20 3 -36 24 -35 14 0 13 2 -3 9 -18 8 -18 9 -2 9 10
1 17 6 15 13 -7 19 -27 21 -34 4z"/>
<path d="M2858 3093 c5 -25 6 -25 13 -8 11 29 10 35 -5 35 -9 0 -12 -8 -8 -27z"/>
<path d="M2908 3111 c11 -7 10 -9 -3 -15 -19 -7 -11 -26 11 -26 8 0 14 10 14
25 0 17 -5 25 -17 25 -14 0 -15 -2 -5 -9z"/>
<path d="M3084 3105 c-3 -8 -4 -20 -1 -27 3 -7 6 -3 6 10 1 12 5 22 10 22 5 0
12 -10 14 -22 4 -20 4 -19 6 5 1 29 -25 39 -35 12z"/>
<path d="M3134 3106 c-8 -20 3 -36 24 -35 14 0 13 2 -3 9 -18 8 -18 9 -2 9 10
1 17 6 15 13 -7 19 -27 21 -34 4z"/>
<path d="M3184 3105 c-8 -19 4 -35 24 -34 15 1 15 2 0 6 -10 2 -18 11 -18 20
0 9 6 13 15 9 8 -3 15 -1 15 4 0 16 -30 12 -36 -5z"/>
<path d="M3230 3095 c0 -23 3 -27 10 -15 9 13 11 13 20 0 7 -12 10 -8 10 15 0
23 -3 27 -10 15 -9 -13 -11 -13 -20 0 -7 12 -10 8 -10 -15z"/>
<path d="M3291 3096 c-1 -23 2 -26 13 -17 11 9 15 9 19 -1 3 -7 6 0 6 16 1 23
-2 26 -13 17 -11 -9 -15 -9 -19 1 -3 7 -6 0 -6 -16z"/>
<path d="M3340 3099 c0 -18 5 -25 20 -25 18 0 18 1 2 21 -9 11 -18 22 -19 24
-2 2 -3 -7 -3 -20z"/>
<path d="M3397 3114 c-15 -15 -7 -45 11 -42 9 2 17 12 17 22 0 20 -16 31 -28
20z m23 -19 c0 -8 -4 -15 -10 -15 -5 0 -10 7 -10 15 0 8 5 15 10 15 6 0 10 -7
10 -15z"/>
<path d="M3440 3096 c0 -19 5 -26 20 -26 15 0 19 6 16 23 -5 33 -36 35 -36 3z"/>
<path d="M3508 3112 c11 -7 11 -10 -2 -15 -23 -9 -20 -27 5 -27 15 0 20 5 17
22 -2 12 -10 23 -18 25 -12 4 -12 3 -2 -5z"/>
<path d="M2205 2815 c0 -12 6 -21 15 -21 9 0 15 9 15 21 0 12 -6 21 -15 21 -9
0 -15 -9 -15 -21z"/>
<path d="M2254 2819 c-3 -6 0 -17 8 -25 13 -13 16 -13 27 0 7 8 10 20 6 26 -8
13 -32 13 -41 -1z m34 -10 c-2 -6 -8 -10 -13 -10 -5 0 -11 4 -13 10 -2 6 4 11
13 11 9 0 15 -5 13 -11z"/>
<path d="M2431 2808 c1 -17 2 -19 6 -5 2 9 8 17 13 17 5 0 11 -8 13 -17 4 -14
5 -12 6 5 1 16 -5 22 -19 22 -14 0 -20 -6 -19 -22z"/>
<path d="M2481 2798 c2 -32 2 -32 6 -5 3 20 9 27 19 23 8 -3 14 -1 14 4 0 6
-9 10 -20 10 -16 0 -20 -6 -19 -32z"/>
<path d="M2534 2819 c-3 -6 0 -17 8 -25 13 -13 16 -13 29 3 12 16 12 17 -2 6
-9 -7 -19 -10 -22 -6 -12 11 -8 21 11 26 15 4 15 5 0 6 -9 0 -20 -4 -24 -10z"/>
<path d="M2590 2820 c0 -5 7 -7 15 -4 8 4 15 8 15 10 0 2 -7 4 -15 4 -8 0 -15
-4 -15 -10z"/>
<path d="M2674 2819 c-10 -17 23 -46 37 -32 7 7 9 19 6 27 -7 18 -33 21 -43 5z
m36 -15 c0 -17 -22 -14 -28 4 -2 7 3 12 12 12 9 0 16 -7 16 -16z"/>
<path d="M2753 2814 c-8 -22 13 -42 30 -25 10 10 9 11 -5 6 -12 -5 -18 -2 -18
8 0 9 8 18 18 20 16 4 16 5 -1 6 -10 0 -20 -6 -24 -15z"/>
<path d="M2800 2810 c0 -11 4 -20 9 -20 5 0 7 9 4 20 -3 11 -7 20 -9 20 -2 0
-4 -9 -4 -20z"/>
<path d="M2832 2810 c0 -14 2 -19 5 -12 2 6 2 18 0 25 -3 6 -5 1 -5 -13z"/>
<path d="M2858 2805 c-3 -14 -1 -25 3 -25 5 0 9 9 9 19 0 11 6 22 13 24 7 4 6
6 -4 6 -10 1 -19 -9 -21 -24z"/>
<path d="M2912 2808 c2 -12 9 -23 16 -24 7 -1 8 0 2 3 -17 8 -12 36 6 29 8 -3
12 -2 9 4 -12 19 -36 11 -33 -12z"/>
<path d="M3000 2807 c0 -27 13 -36 26 -16 3 6 -1 18 -10 27 -15 15 -16 14 -16
-11z"/>
<path d="M3072 2810 c0 -14 2 -19 5 -12 2 6 2 18 0 25 -3 6 -5 1 -5 -13z"/>
<path d="M3097 2815 c-4 -8 -2 -17 3 -20 6 -4 10 3 10 14 0 25 -6 27 -13 6z"/>
<path d="M3133 2824 c9 -3 15 -9 12 -14 -3 -5 0 -12 6 -15 7 -5 10 0 7 11 -2
10 -12 20 -23 21 -16 1 -16 1 -2 -3z"/>
<path d="M3240 2820 c0 -5 7 -7 17 -3 13 5 15 2 10 -17 -4 -16 -3 -20 5 -12
14 14 3 42 -17 42 -8 0 -15 -4 -15 -10z"/>
<path d="M3303 2824 c9 -3 15 -9 12 -14 -3 -5 0 -12 6 -15 7 -5 10 0 7 11 -2
10 -12 20 -23 21 -16 1 -16 1 -2 -3z"/>
<path d="M3340 2811 c0 -22 15 -35 29 -27 13 9 1 46 -15 46 -8 0 -14 -9 -14
-19z m24 -6 c3 -8 1 -15 -4 -15 -6 0 -10 7 -10 15 0 8 2 15 4 15 2 0 6 -7 10
-15z"/>
<path d="M3392 2808 c2 -12 9 -23 16 -24 7 -1 8 0 2 3 -18 8 -12 33 7 26 11
-4 14 -3 9 5 -13 21 -38 14 -34 -10z"/>
<path d="M3514 2819 c-3 -6 -1 -16 5 -22 8 -8 11 -5 11 11 0 24 -5 28 -16 11z"/>
<path d="M3548 2823 c6 -2 12 -12 12 -21 0 -15 -2 -15 -10 -2 -5 8 -10 10 -10
4 0 -16 10 -23 25 -18 18 7 6 44 -14 43 -10 0 -11 -2 -3 -6z"/>
<path d="M3590 2820 c0 -5 7 -7 15 -4 8 4 15 8 15 10 0 2 -7 4 -15 4 -8 0 -15
-4 -15 -10z"/>
<path d="M3641 2808 c1 -19 2 -19 6 -5 3 11 11 16 19 13 9 -3 12 -1 9 4 -12
19 -35 10 -34 -12z"/>
<path d="M3696 2822 c6 -4 14 -14 17 -22 4 -10 6 -8 6 8 1 15 -5 22 -16 22
-11 0 -14 -3 -7 -8z"/>
<path d="M3744 2810 c0 -10 9 -16 21 -16 12 0 21 6 21 16 0 10 -9 16 -21 16
-12 0 -21 -6 -21 -16z"/>
<path d="M3808 2805 c-3 -14 -1 -25 3 -25 5 0 9 9 9 19 0 11 6 22 13 24 7 4 6
6 -4 6 -10 1 -19 -9 -21 -24z"/>
<path d="M3873 2824 c9 -3 15 -9 12 -14 -3 -5 0 -12 6 -15 7 -5 10 0 7 11 -2
10 -12 20 -23 21 -16 1 -16 1 -2 -3z"/>
<path d="M3917 2810 c3 -11 7 -20 8 -20 1 0 5 9 8 20 3 12 0 20 -8 20 -8 0
-11 -8 -8 -20z"/>
<path d="M3952 2809 c3 -25 29 -33 34 -11 1 7 0 8 -3 2 -8 -16 -26 -12 -20 5
4 8 1 17 -4 21 -7 4 -9 -3 -7 -17z"/>
<path d="M4000 2820 c0 -5 7 -7 15 -4 8 4 15 8 15 10 0 2 -7 4 -15 4 -8 0 -15
-4 -15 -10z"/>
<path d="M4060 2820 c10 -6 11 -10 3 -10 -7 0 -13 -4 -13 -8 0 -5 7 -9 15 -9
8 0 15 9 15 19 0 11 -7 18 -17 18 -15 0 -16 -2 -3 -10z"/>
<path d="M2310 2808 c0 -4 7 -8 15 -8 8 0 15 4 15 8 0 5 -7 9 -15 9 -8 0 -15
-4 -15 -9z"/>
<path d="M2364 2797 c1 -24 2 -25 14 -10 6 9 12 22 12 27 0 6 -4 5 -9 -3 -7
-11 -9 -11 -14 0 -2 8 -4 2 -3 -14z"/>
<path d="M3491 2804 c0 -11 3 -14 6 -6 3 7 2 16 -1 19 -3 4 -6 -2 -5 -13z"/>
<path d="M3120 2801 c0 -6 4 -13 10 -16 6 -3 7 1 4 9 -7 18 -14 21 -14 7z"/>
<path d="M3691 2794 c0 -11 3 -14 6 -6 3 7 2 16 -1 19 -3 4 -6 -2 -5 -13z"/>
<path d="M3860 2801 c0 -6 4 -13 10 -16 6 -3 7 1 4 9 -7 18 -14 21 -14 7z"/>
<path d="M2597 2789 c7 -7 15 -10 18 -7 3 3 -2 9 -12 12 -14 6 -15 5 -6 -5z"/>
<path d="M2880 2790 c0 -5 5 -10 11 -10 5 0 7 5 4 10 -3 6 -8 10 -11 10 -2 0
-4 -4 -4 -10z"/>
<path d="M3597 2789 c7 -7 15 -10 18 -7 3 3 -2 9 -12 12 -14 6 -15 5 -6 -5z"/>
<path d="M3835 2790 c-3 -5 -1 -10 4 -10 6 0 11 5 11 10 0 6 -2 10 -4 10 -3 0
-8 -4 -11 -10z"/>
<path d="M4007 2789 c7 -7 15 -10 18 -7 3 3 -2 9 -12 12 -14 6 -15 5 -6 -5z"/>
<path d="M2682 2718 c-15 -15 -16 -45 -1 -54 6 -3 18 0 26 8 13 13 13 17 -1
31 -12 11 -13 17 -3 20 6 3 7 6 2 6 -6 1 -16 -4 -23 -11z m20 -33 c0 -5 -5
-11 -11 -13 -6 -2 -11 4 -11 13 0 9 5 15 11 13 6 -2 11 -8 11 -13z"/>
<path d="M2200 2700 c0 -5 7 -7 15 -4 8 4 15 8 15 10 0 2 -7 4 -15 4 -8 0 -15
-4 -15 -10z"/>
<path d="M2250 2700 c0 -5 7 -7 15 -4 10 4 15 0 15 -11 0 -12 -5 -15 -17 -10
-15 5 -16 4 -5 -6 16 -17 37 3 29 25 -7 17 -37 22 -37 6z"/>
<path d="M2303 2695 c-3 -9 -3 -19 1 -22 3 -4 6 1 6 10 0 22 17 22 23 0 4 -14
5 -12 6 5 1 25 -26 31 -36 7z"/>
<path d="M2352 2690 c0 -14 2 -19 5 -12 2 6 2 18 0 25 -3 6 -5 1 -5 -13z"/>
<path d="M2382 2690 c0 -14 2 -19 5 -12 2 6 2 18 0 25 -3 6 -5 1 -5 -13z"/>
<path d="M2401 2692 c-1 -15 6 -25 22 -31 28 -11 28 -11 18 25 -8 24 -9 25
-10 7 -1 -13 -5 -23 -10 -23 -5 0 -12 10 -14 23 l-4 22 -2 -23z"/>
<path d="M2457 2696 c-3 -8 0 -19 7 -25 10 -9 12 -6 8 14 -5 29 -8 31 -15 11z"/>
<path d="M2510 2698 c0 -10 3 -18 8 -19 4 0 15 -2 25 -4 12 -2 17 3 17 18 -1
21 -1 21 -14 4 -14 -18 -15 -18 -25 0 -10 17 -10 17 -11 1z"/>
<path d="M2620 2703 c0 -5 5 -15 10 -23 8 -12 10 -11 10 8 0 12 -4 22 -10 22
-5 0 -10 -3 -10 -7z"/>
<path d="M2731 2688 c0 -16 2 -18 6 -8 3 8 11 18 17 22 7 5 4 8 -6 8 -12 0
-18 -7 -17 -22z"/>
<path d="M2800 2703 c0 -5 5 -15 10 -23 8 -12 10 -11 10 8 0 12 -4 22 -10 22
-5 0 -10 -3 -10 -7z"/>
<path d="M2848 2687 c-3 -19 -2 -25 4 -19 6 6 8 18 6 28 -3 14 -5 12 -10 -9z"/>
<path d="M2920 2693 c0 -13 5 -23 10 -23 13 0 13 11 0 30 -8 12 -10 11 -10 -7z"/>
<path d="M2952 2690 c0 -14 2 -19 5 -12 2 6 2 18 0 25 -3 6 -5 1 -5 -13z"/>
<path d="M2984 2690 c1 -8 11 -16 24 -16 16 -1 22 4 22 20 -1 20 -2 20 -14 4
-16 -21 -23 -22 -29 -5 -2 7 -3 6 -3 -3z"/>
<path d="M3040 2693 c0 -13 5 -23 10 -23 13 0 13 11 0 30 -8 12 -10 11 -10 -7z"/>
<path d="M3066 2702 c-2 -4 -1 -14 5 -22 7 -12 9 -10 9 8 0 23 -5 28 -14 14z"/>
<path d="M3121 2688 c1 -17 3 -18 6 -5 2 9 8 17 13 17 5 0 11 -8 14 -17 4 -14
4 -14 3 2 -3 30 -37 33 -36 3z"/>
<path d="M3170 2686 c0 -11 3 -16 7 -13 3 4 12 2 18 -3 15 -12 40 13 30 29
-11 19 -55 8 -55 -13z m48 3 c-2 -6 -8 -10 -13 -10 -5 0 -11 4 -13 10 -2 6 4
11 13 11 9 0 15 -5 13 -11z"/>
<path d="M3240 2696 c0 -8 -3 -21 -6 -29 -4 -11 1 -13 20 -10 14 3 26 9 26 14
0 5 -7 6 -15 3 -10 -4 -15 0 -15 11 0 11 5 15 16 11 8 -3 12 -2 9 4 -9 15 -35
12 -35 -4z"/>
<path d="M3290 2692 c0 -11 4 -23 8 -26 10 -6 9 30 -1 40 -4 4 -7 -2 -7 -14z"/>
<path d="M3341 2694 c0 -11 3 -14 6 -6 3 7 2 16 -1 19 -3 4 -6 -2 -5 -13z"/>
<path d="M3371 2692 c-8 -14 -6 -19 5 -19 7 0 14 9 14 19 0 10 -2 18 -5 18 -2
0 -9 -8 -14 -18z"/>
<path d="M3400 2693 c0 -13 5 -23 10 -23 13 0 13 11 0 30 -8 12 -10 11 -10 -7z"/>
<path d="M3426 2702 c-2 -4 -1 -14 5 -22 7 -12 9 -10 9 8 0 23 -5 28 -14 14z"/>
<path d="M3482 2680 c0 -19 2 -27 5 -17 2 9 2 25 0 35 -3 9 -5 1 -5 -18z"/>
<path d="M3505 2686 c0 -13 3 -22 8 -19 4 2 7 13 7 24 0 10 -3 19 -7 19 -5 0
-8 -11 -8 -24z"/>
<path d="M3537 2704 c-8 -9 4 -35 13 -29 5 3 11 1 15 -5 3 -5 17 -10 31 -10
19 0 24 5 24 25 0 33 -37 35 -43 3 l-4 -23 -2 23 c-1 20 -20 30 -34 16z m73
-19 c0 -8 -4 -15 -10 -15 -5 0 -10 7 -10 15 0 8 5 15 10 15 6 0 10 -7 10 -15z"/>
<path d="M3633 2694 c-8 -22 13 -42 30 -25 10 10 9 11 -5 6 -13 -5 -18 -2 -18
10 0 11 5 15 15 11 8 -3 15 -1 15 4 0 16 -30 11 -37 -6z"/>
<path d="M3684 2692 c0 -11 8 -18 21 -19 11 -1 14 1 8 4 -7 3 -13 11 -13 19 0
8 -4 14 -8 14 -4 0 -8 -8 -8 -18z"/>
<path d="M3726 2702 c-2 -4 -1 -14 5 -22 7 -12 9 -10 9 8 0 23 -5 28 -14 14z"/>
<path d="M2877 2687 c-3 -8 1 -14 8 -14 7 0 11 6 8 14 -3 7 -6 13 -8 13 -2 0
-5 -6 -8 -13z"/>
<path d="M2600 2679 c0 -5 5 -7 10 -4 6 3 10 8 10 11 0 2 -4 4 -10 4 -5 0 -10
-5 -10 -11z"/>
<path d="M2207 2669 c7 -7 15 -10 18 -7 3 3 -2 9 -12 12 -14 6 -15 5 -6 -5z"/>
<path d="M3344 2544 c9 -8 16 -21 16 -29 0 -18 32 -28 42 -13 4 7 8 22 8 33 0
15 -3 16 -12 7 -16 -16 -28 -15 -28 3 0 9 -9 15 -21 15 -19 0 -19 -1 -5 -16z"/>
<path d="M4229 2538 c8 -23 31 -37 31 -19 0 6 -5 11 -11 11 -8 0 -8 5 1 15 10
13 9 15 -8 15 -18 0 -20 -4 -13 -22z"/>
<path d="M3237 2465 c3 -8 9 -12 14 -9 12 7 11 11 -5 17 -10 4 -13 1 -9 -8z"/>
<path d="M3382 2460 c-7 -12 -8 -20 -2 -20 5 0 10 -4 10 -10 0 -5 9 -19 20
-30 15 -15 20 -16 20 -6 0 8 -4 18 -10 21 -5 3 -13 19 -17 36 -8 28 -9 28 -21
9z"/>
<path d="M4235 2444 c-15 -16 -16 -26 -6 -103 1 -2 8 2 16 9 9 7 27 10 45 6
17 -3 30 -1 30 4 0 6 7 10 15 10 8 0 15 5 15 10 0 6 -9 10 -20 10 -11 0 -20
-5 -20 -11 0 -6 -7 -8 -16 -5 -8 3 -24 1 -35 -4 -20 -11 -28 3 -8 15 7 5 5 13
-6 25 -14 16 -14 18 0 23 8 4 22 4 30 1 8 -4 15 -2 15 4 0 5 -7 13 -16 16 -21
8 -20 8 -39 -10z"/>
<path d="M3310 2446 c0 -2 7 -9 15 -16 13 -11 14 -10 9 4 -5 14 -24 23 -24 12z"/>
<path d="M3156 2369 c-11 -11 -15 -19 -10 -19 16 0 37 17 33 27 -2 6 -13 2
-23 -8z"/>
<path d="M3276 2340 c16 -32 38 -42 27 -12 -8 23 -23 42 -33 42 -5 0 -2 -13 6
-30z"/>
<path d="M3199 2343 c-11 -13 -11 -17 -1 -20 6 -3 12 -11 12 -18 0 -7 7 -15
15 -19 21 -8 19 21 -2 33 -14 8 -15 12 -4 25 7 9 9 16 3 16 -5 0 -16 -7 -23
-17z"/>
<path d="M3166 2293 c-6 -14 -5 -15 5 -6 7 7 10 15 7 18 -3 3 -9 -2 -12 -12z"/>
<path d="M3180 2235 c-9 -11 -7 -12 12 -8 19 5 21 3 11 -8 -16 -16 -17 -40 -1
-36 6 1 14 -9 18 -23 6 -25 6 -25 18 -4 9 18 9 24 -3 34 -8 7 -15 20 -15 30 0
23 -25 33 -40 15z"/>
<path d="M2867 2213 c-4 -3 -7 -11 -7 -17 0 -6 5 -5 12 2 6 6 9 14 7 17 -3 3
-9 2 -12 -2z"/>
<path d="M2960 2152 c0 -6 -8 -13 -17 -16 -10 -2 -4 -4 12 -3 17 1 29 6 28 12
-2 13 -23 19 -23 7z"/>
<path d="M3062 2096 c-6 -13 -7 -29 -2 -37 5 -8 5 -19 -1 -26 -13 -15 -3 -33
17 -33 9 0 14 10 14 30 0 16 7 33 16 38 19 10 12 27 -15 42 -14 7 -20 4 -29
-14z"/>
<path d="M2950 2095 c-8 -9 -8 -15 -2 -15 12 0 26 19 19 26 -2 2 -10 -2 -17
-11z"/>
<path d="M3230 2070 c0 -5 5 -10 11 -10 5 0 7 5 4 10 -3 6 -8 10 -11 10 -2 0
-4 -4 -4 -10z"/>
<path d="M2985 1991 c-3 -11 -3 -31 1 -45 4 -19 2 -26 -8 -26 -7 0 -14 -9 -14
-20 0 -13 5 -18 16 -15 10 3 22 -10 37 -43 24 -53 22 -62 -13 -62 -19 0 -24 5
-24 25 0 30 -24 25 -57 -13 -22 -26 -22 -26 -43 -7 -24 22 -29 19 -33 -25 -3
-19 -9 -36 -16 -38 -6 -2 -11 -12 -11 -23 0 -16 -3 -17 -26 -7 -23 11 -24 13
-9 24 15 11 15 13 -4 19 -23 7 -27 20 -11 30 6 3 10 -2 11 -12 0 -14 2 -15 6
-3 3 8 15 23 27 32 16 14 18 20 8 26 -15 10 -60 4 -68 -9 -11 -18 -24 -8 -24
17 0 14 -4 23 -9 20 -5 -4 -7 3 -4 15 3 11 16 24 28 29 12 5 36 21 54 38 38
35 32 43 -47 62 -71 16 -108 2 -133 -54 -10 -23 -19 -49 -19 -59 0 -10 -14
-48 -31 -85 -26 -58 -37 -71 -77 -92 -39 -21 -53 -37 -83 -95 -20 -38 -37 -73
-38 -78 0 -4 17 -14 39 -23 39 -16 40 -17 34 -58 -3 -22 -10 -55 -15 -73 -10
-30 -11 -31 -28 -15 -9 9 -13 20 -8 23 4 3 6 26 3 50 -2 24 -5 51 -6 59 0 8
-9 -11 -19 -42 -11 -34 -17 -73 -14 -94 3 -24 0 -39 -8 -45 -10 -6 -10 -10 0
-23 7 -9 11 -23 7 -31 -3 -9 -2 -14 3 -11 4 3 19 -6 31 -19 13 -14 30 -25 37
-25 8 0 16 -7 20 -16 3 -8 12 -13 19 -10 8 3 14 1 14 -4 0 -6 7 -10 16 -10 8
0 13 -4 10 -8 -2 -4 10 -9 29 -10 18 -2 36 1 39 6 7 11 56 3 56 -9 0 -14 34
-10 58 7 20 14 22 14 22 -2 0 -12 3 -14 13 -6 6 5 23 13 36 17 20 6 23 4 17
-10 -9 -25 3 -37 21 -19 9 8 19 11 22 6 11 -16 59 -23 64 -9 4 9 8 8 16 -3 9
-13 14 -13 32 -2 12 8 24 10 28 5 9 -14 93 -14 88 0 -2 6 -14 12 -28 12 -21 0
-25 5 -30 50 -3 28 -7 44 -7 38 -3 -18 -42 -16 -42 1 0 8 -7 17 -16 20 -9 4
-14 9 -11 13 4 3 -1 12 -10 18 -14 10 -4 12 53 12 39 0 72 -4 76 -11 5 -7 8
-6 8 4 0 8 9 21 19 27 13 8 18 19 14 33 -4 14 -1 20 11 20 18 0 23 54 6 65 -6
4 -8 11 -5 16 4 5 -21 9 -57 9 -92 0 -112 19 -23 22 l70 2 -65 3 c-91 6 -102
23 -15 24 61 2 65 3 30 9 -31 6 -34 7 -12 9 51 2 27 21 -28 21 -30 0 -55 3
-55 8 0 4 24 7 54 7 45 -1 56 2 59 17 5 16 -2 18 -64 18 -39 0 -69 4 -69 10 0
6 28 10 65 10 45 0 65 4 66 13 3 54 36 93 109 127 28 13 50 27 50 32 0 17 -26
35 -58 43 -17 3 -35 12 -39 18 -11 18 -14 47 -4 47 5 0 11 11 13 25 4 17 1 25
-8 25 -21 0 -17 21 5 27 18 5 36 31 28 39 -2 2 -22 -4 -45 -13 -41 -16 -43
-16 -63 5 -24 27 -36 28 -44 3z m122 -225 c-8 -19 -37 -21 -37 -3 0 7 5 18 12
25 15 15 33 -1 25 -22z m-147 -21 c0 -8 -6 -15 -14 -15 -17 0 -28 14 -19 24
12 12 33 6 33 -9z m-57 -92 c-7 -2 -19 -2 -25 0 -7 3 -2 5 12 5 14 0 19 -2 13
-5z m117 -37 c8 -2 -13 -4 -47 -5 -35 0 -63 2 -63 7 0 7 76 5 110 -2z m-55
-106 c3 -5 1 -10 -4 -10 -6 0 -11 5 -11 10 0 6 2 10 4 10 3 0 8 -4 11 -10z
m-485 -78 c0 -15 -2 -15 -10 -2 -13 20 -13 33 0 25 6 -3 10 -14 10 -23z m140
13 c18 -9 32 -26 36 -43 3 -15 10 -37 15 -50 12 -30 11 -35 -2 -26 -24 14 -2
-14 37 -49 23 -20 48 -37 55 -38 8 0 5 -4 -5 -8 -15 -6 -26 0 -47 23 l-28 31
-22 -22 c-13 -13 -25 -41 -29 -65 l-6 -43 -13 44 c-13 44 -27 45 -33 2 -2 -17
-10 -5 -31 50 -23 58 -27 77 -18 91 8 12 8 18 1 18 -6 0 -2 10 9 22 16 16 18
25 9 35 -8 10 -7 17 8 28 24 18 29 18 64 0z m287 -32 c-3 -10 -5 -2 -5 17 0
19 2 27 5 18 2 -10 2 -26 0 -35z m-21 25 c-3 -7 -7 -25 -10 -40 -10 -46 -44
-24 -45 30 -1 18 4 22 29 22 19 0 28 -4 26 -12z m97 -15 c-7 -2 -19 -2 -25 0
-7 3 -2 5 12 5 14 0 19 -2 13 -5z m-479 -55 c-36 -58 -74 -96 -74 -75 0 9 8
22 18 29 9 7 30 30 45 51 38 50 44 47 11 -5z m496 -15 c0 -10 -32 -43 -42 -43
-12 0 -10 24 4 38 13 13 38 16 38 5z m34 -19 c8 -22 9 -21 -20 -28 -35 -9 -41
-1 -19 24 22 24 31 25 39 4z"/>
<path d="M3670 1950 c0 -5 7 -10 16 -10 8 0 12 5 9 10 -3 6 -10 10 -16 10 -5
0 -9 -4 -9 -10z"/>
<path d="M3715 1920 c3 -5 14 -10 23 -10 15 0 15 2 2 10 -20 13 -33 13 -25 0z"/>
<path d="M2785 1870 c-11 -18 13 -36 31 -25 9 6 16 15 17 20 3 14 -40 18 -48
5z"/>
<path d="M2855 1860 c3 -5 10 -10 16 -10 5 0 9 5 9 10 0 6 -7 10 -16 10 -8 0
-12 -4 -9 -10z"/>
<path d="M3155 1851 c-3 -6 -11 -9 -16 -6 -5 3 -6 -1 -3 -10 6 -15 8 -15 22
-1 9 9 13 18 10 21 -3 4 -9 1 -13 -4z"/>
<path d="M3570 1786 c0 -31 6 -34 13 -6 3 11 1 23 -4 26 -5 3 -9 -6 -9 -20z"/>
<path d="M3394 1788 c-7 -11 -8 -10 29 -26 21 -9 27 -9 27 1 0 16 -48 38 -56
25z"/>
<path d="M3556 1625 c-8 -23 -9 -22 17 -30 l22 -8 -21 -4 c-31 -6 -39 -43 -11
-43 18 0 19 2 7 10 -9 6 -10 10 -3 10 6 0 15 -4 18 -10 3 -5 18 -10 33 -10
l26 0 -31 33 c-17 17 -35 40 -40 51 -9 17 -11 17 -17 1z"/>
<path d="M4071 1473 c-14 -70 -14 -73 2 -73 8 0 13 21 14 65 2 36 1 65 -1 65
-2 0 -8 -26 -15 -57z"/>
<path d="M3563 1513 c15 -2 39 -2 55 0 15 2 2 4 -28 4 -30 0 -43 -2 -27 -4z"/>
<path d="M3721 1490 c0 -8 4 -22 9 -30 12 -18 12 -2 0 25 -6 13 -9 15 -9 5z"/>
<path d="M3120 1330 c0 -5 5 -10 11 -10 5 0 7 5 4 10 -3 6 -8 10 -11 10 -2 0
-4 -4 -4 -10z"/>
<path d="M3890 1285 c7 -9 15 -13 17 -11 7 7 -7 26 -19 26 -6 0 -6 -6 2 -15z"/>
<path d="M2394 1173 c2 -10 6 -17 9 -15 4 1 12 2 18 2 8 0 8 5 -1 15 -17 20
-29 19 -26 -2z"/>
<path d="M2315 1150 c3 -5 8 -10 11 -10 2 0 4 5 4 10 0 6 -5 10 -11 10 -5 0
-7 -4 -4 -10z"/>
<path d="M3420 1120 c-8 -5 -12 -11 -9 -14 2 -3 11 -1 19 4 8 5 12 11 9 14 -2
3 -11 1 -19 -4z"/>
<path d="M4280 1100 c-12 -8 -12 -10 3 -16 21 -8 35 2 21 16 -5 5 -15 6 -24 0z"/>
<path d="M3130 1090 c0 -5 5 -10 10 -10 6 0 10 5 10 10 0 6 -4 10 -10 10 -5 0
-10 -4 -10 -10z"/>
<path d="M4241 1084 c0 -11 3 -14 6 -6 3 7 2 16 -1 19 -3 4 -6 -2 -5 -13z"/>
<path d="M2292 548 c-7 -7 -12 -30 -12 -53 0 -52 14 -65 65 -63 l40 1 -45 6
-45 6 0 50 0 50 52 0 c28 0 49 3 46 8 -7 12 -88 8 -101 -5z"/>
<path d="M2402 495 c0 -16 2 -22 5 -12 2 9 2 23 0 30 -3 6 -5 -1 -5 -18z"/>
<path d="M2853 178 c6 -19 768 -19 775 0 3 9 -79 12 -388 12 -309 0 -391 -3
-387 -12z"/>
<path d="M520 2695 c0 -8 7 -15 15 -15 9 0 12 6 9 15 -4 8 -10 15 -15 15 -5 0
-9 -7 -9 -15z"/>
<path d="M757 2703 c-11 -11 -8 -63 4 -63 6 0 9 9 6 20 -3 10 -1 20 4 22 4 2
5 9 0 16 -4 7 -10 9 -14 5z"/>
<path d="M620 2665 c0 -8 4 -15 10 -15 5 0 7 7 4 15 -4 8 -8 15 -10 15 -2 0
-4 -7 -4 -15z"/>
<path d="M1840 2639 c0 -5 5 -7 10 -4 6 3 10 8 10 11 0 2 -4 4 -10 4 -5 0 -10
-5 -10 -11z"/>
<path d="M490 2622 c0 -5 7 -13 16 -16 10 -4 14 -1 12 6 -5 15 -28 23 -28 10z"/>
<path d="M540 2620 c-8 -5 -11 -12 -8 -16 4 -3 14 1 23 10 18 17 9 21 -15 6z"/>
<path d="M570 2610 c-12 -8 -13 -12 -2 -19 9 -5 13 -23 11 -51 -3 -38 0 -44
20 -52 16 -5 28 -5 35 2 7 7 6 10 -2 10 -7 0 -12 16 -12 40 0 51 19 53 22 3 1
-37 1 -37 5 -5 2 17 9 32 15 32 7 0 9 -17 6 -45 -3 -25 -2 -45 2 -45 4 0 8 27
8 60 0 48 -3 58 -13 50 -10 -8 -15 -8 -21 1 -5 8 -3 10 7 4 10 -5 11 -5 4 2
-15 16 -68 24 -85 13z m40 -65 c0 -19 -4 -35 -10 -35 -5 0 -10 16 -10 35 0 19
5 35 10 35 6 0 10 -16 10 -35z"/>
<path d="M860 2558 c0 -53 14 -81 23 -46 10 37 8 58 -8 74 -13 14 -15 11 -15
-28z"/>
<path d="M511 2554 c0 -11 3 -14 6 -6 3 7 2 16 -1 19 -3 4 -6 -2 -5 -13z"/>
<path d="M500 2520 c0 -5 5 -10 10 -10 6 0 10 5 10 10 0 6 -4 10 -10 10 -5 0
-10 -4 -10 -10z"/>
<path d="M1820 2474 c0 -8 5 -12 10 -9 6 3 10 10 10 16 0 5 -4 9 -10 9 -5 0
-10 -7 -10 -16z"/>
<path d="M881 2351 c-10 -7 -11 -13 -2 -27 10 -18 10 -18 11 -1 0 10 4 16 8
13 5 -3 9 1 9 9 0 17 -6 18 -26 6z"/>
<path d="M1050 2335 c0 -8 9 -15 20 -15 11 0 20 2 20 5 0 2 -9 9 -20 15 -16 9
-20 8 -20 -5z"/>
<path d="M130 2810 c0 -5 5 -10 10 -10 6 0 10 5 10 10 0 6 -4 10 -10 10 -5 0
-10 -4 -10 -10z"/>
<path d="M1942 2380 c0 -19 2 -27 5 -17 2 9 2 25 0 35 -3 9 -5 1 -5 -18z"/>
<path d="M501 2366 c-8 -10 -9 -16 -1 -21 5 -3 13 1 16 10 9 22 -1 29 -15 11z"/>
<path d="M1920 1300 c-9 -6 -10 -10 -3 -10 6 0 15 5 18 10 8 12 4 12 -15 0z"/>
<path d="M1925 1270 c-3 -5 -1 -10 4 -10 6 0 11 5 11 10 0 6 -2 10 -4 10 -3 0
-8 -4 -11 -10z"/>
<path d="M545 1260 c-7 -12 2 -12 30 0 19 8 19 9 -2 9 -12 1 -25 -3 -28 -9z"/>
<path d="M725 1180 c-3 -5 -1 -10 4 -10 6 0 11 5 11 10 0 6 -2 10 -4 10 -3 0
-8 -4 -11 -10z"/>
<path d="M818 1163 c7 -3 16 -2 19 1 4 3 -2 6 -13 5 -11 0 -14 -3 -6 -6z"/>
<path d="M731 1146 c-9 -11 -6 -12 14 -8 14 2 22 8 19 13 -8 13 -20 11 -33 -5z"/>
<path d="M845 1150 c-3 -5 -2 -10 4 -10 5 0 13 5 16 10 3 6 2 10 -4 10 -5 0
-13 -4 -16 -10z"/>
<path d="M645 1133 c-18 -14 -18 -15 -2 -9 10 3 25 6 33 6 9 0 12 5 9 10 -8
14 -16 12 -40 -7z"/>
<path d="M1675 1140 c-3 -6 1 -7 9 -4 18 7 21 14 7 14 -6 0 -13 -4 -16 -10z"/>
<path d="M745 1120 c-3 -5 1 -10 9 -10 9 0 16 5 16 10 0 6 -4 10 -9 10 -6 0
-13 -4 -16 -10z"/>
<path d="M1835 1120 c-3 -5 -1 -10 4 -10 6 0 11 5 11 10 0 6 -2 10 -4 10 -3 0
-8 -4 -11 -10z"/>
<path d="M818 1113 c7 -3 16 -2 19 1 4 3 -2 6 -13 5 -11 0 -14 -3 -6 -6z"/>
<path d="M680 1102 c0 -5 7 -13 16 -16 10 -4 14 -1 12 6 -5 15 -28 23 -28 10z"/>
<path d="M604 1085 c15 -8 33 -15 40 -15 6 0 -2 7 -18 15 -15 8 -33 15 -40 15
-6 0 2 -7 18 -15z"/>
<path d="M1042 1084 c10 -10 20 -15 24 -12 3 4 -5 12 -18 18 -22 12 -22 12 -6
-6z"/>
<path d="M1198 1053 c7 -3 16 -2 19 1 4 3 -2 6 -13 5 -11 0 -14 -3 -6 -6z"/>
<path d="M1143 1043 c9 -2 23 -2 30 0 6 3 -1 5 -18 5 -16 0 -22 -2 -12 -5z"/>
<path d="M257 1263 c-4 -3 -7 -26 -7 -50 0 -34 4 -43 18 -43 13 0 14 2 3 9 -8
5 -9 11 -3 15 6 4 15 -2 21 -11 9 -15 12 -16 20 -4 7 11 11 10 20 -8 15 -27
27 -27 34 0 6 22 -11 59 -26 59 -4 0 -5 -4 -2 -10 4 -6 -9 -10 -32 -9 -26 1
-32 3 -18 7 20 7 20 7 -1 29 -11 13 -24 20 -27 16z"/>
<path d="M148 5089 c-50 -12 -100 -45 -128 -86 -35 -51 -15 -52 30 -1 78 89 0
82 990 88 l875 5 -865 2 c-476 0 -882 -3 -902 -8z"/>
</g>
</svg>
