<?xml version="1.0" standalone="no"?>
<!DOCTYPE svg PUBLIC "-//W3C//DTD SVG 20010904//EN"
 "http://www.w3.org/TR/2001/REC-SVG-20010904/DTD/svg10.dtd">
<svg version="1.0" xmlns="http://www.w3.org/2000/svg"
 width="459.000000pt" height="530.000000pt" viewBox="0 0 459.000000 530.000000"
 preserveAspectRatio="xMidYMid meet">

<g transform="translate(0.000000,530.000000) scale(0.100000,-0.100000)"
fill="#000000" stroke="none">
<path d="M2266 5189 c-483 -67 -895 -405 -1046 -857 -63 -192 -63 -185 -67
-804 l-4 -568 -32 0 c-65 -1 -173 -31 -256 -72 -166 -82 -297 -251 -336 -434
-22 -103 -22 -1765 0 -1868 50 -239 252 -441 491 -491 104 -22 2724 -22 2828
0 239 50 441 252 491 491 22 103 22 1765 0 1868 -50 239 -252 441 -491 491
-38 8 -83 15 -101 15 l-32 0 -4 568 c-3 493 -6 577 -21 642 -63 273 -181 485
-370 668 -181 174 -393 286 -641 337 -96 20 -314 27 -409 14z m298 -644 c183
-39 352 -170 434 -336 70 -142 72 -157 72 -736 l0 -513 -640 0 -640 0 0 513
c0 579 2 594 72 736 126 256 420 396 702 336z m-2 -2577 c116 -53 183 -159
183 -288 0 -96 -34 -171 -105 -231 l-49 -41 -3 -293 c-3 -278 -4 -295 -24
-321 -39 -53 -71 -69 -134 -69 -63 0 -95 16 -134 69 -20 26 -21 43 -24 321
l-3 293 -49 41 c-90 76 -129 201 -97 312 57 194 259 289 439 207z"/>
<path d="M351 18 c1 -17 2 -19 6 -5 4 16 94 17 1713 17 1619 0 1709 -1 1713
-18 4 -13 5 -11 6 6 l1 22 -1720 0 -1720 0 1 -22z"/>
</g>
</svg>
