<?xml version="1.0" standalone="no"?>
<!DOCTYPE svg PUBLIC "-//W3C//DTD SVG 20010904//EN"
 "http://www.w3.org/TR/2001/REC-SVG-20010904/DTD/svg10.dtd">
<svg version="1.0" xmlns="http://www.w3.org/2000/svg"
 width="167.000000pt" height="42.000000pt" viewBox="0 0 167.000000 42.000000"
 preserveAspectRatio="xMidYMid meet">

<g transform="translate(0.000000,42.000000) scale(0.100000,-0.100000)"
fill="#000000" stroke="none">
<path d="M133 324 c-39 -9 -48 -32 -48 -126 0 -83 2 -91 25 -110 21 -17 36
-19 112 -16 54 2 92 8 100 16 8 8 14 46 16 100 3 76 1 91 -16 112 -17 22 -29
25 -93 26 -41 1 -84 0 -96 -2z m27 -92 c0 -10 7 -27 15 -38 13 -18 14 -17 15
19 0 30 4 37 20 37 11 0 20 -7 20 -15 0 -8 4 -15 9 -15 5 0 11 7 15 15 7 19
36 20 36 1 0 -7 -6 -19 -14 -25 -13 -11 -12 -15 5 -32 10 -10 19 -23 19 -29 0
-16 -37 -12 -44 5 -3 8 -10 15 -16 15 -5 0 -10 -7 -10 -15 0 -18 -32 -20 -62
-4 -18 10 -48 65 -48 89 0 5 9 10 20 10 13 0 20 -7 20 -18z"/>
<path d="M440 191 l0 -61 38 0 c38 0 80 28 66 43 -4 4 -7 21 -8 39 -1 32 -2
33 -48 36 l-48 3 0 -60z m68 27 c-7 -19 -38 -22 -38 -4 0 10 9 16 21 16 12 0
19 -5 17 -12z m12 -47 c0 -9 -24 -21 -41 -21 -5 0 -9 7 -9 15 0 9 9 15 25 15
14 0 25 -4 25 -9z"/>
<path d="M570 190 c0 -47 3 -60 15 -60 10 0 15 10 15 28 l1 27 24 -27 c13 -16
32 -28 41 -28 15 0 13 5 -9 28 -33 34 -33 39 -5 69 28 30 3 31 -29 1 l-23 -21
0 21 c0 13 -6 22 -15 22 -12 0 -15 -13 -15 -60z"/>
<path d="M694 225 c-19 -29 -11 -60 21 -81 42 -28 95 2 95 54 0 51 -87 72
-116 27z m81 -30 c0 -25 -4 -31 -27 -33 -19 -2 -28 2 -33 18 -8 27 12 52 39
48 16 -2 21 -10 21 -33z"/>
<path d="M832 193 c2 -34 8 -58 16 -61 7 -2 12 6 12 22 0 21 5 26 24 26 18 0
26 -6 28 -22 2 -12 9 -23 16 -26 9 -3 12 13 12 57 0 48 -3 61 -15 61 -8 0 -15
-9 -15 -20 0 -15 -7 -20 -25 -20 -18 0 -25 5 -25 20 0 11 -7 20 -15 20 -13 0
-15 -11 -13 -57z"/>
<path d="M960 240 c0 -5 9 -10 20 -10 17 0 20 -7 20 -50 0 -38 4 -50 15 -50
11 0 15 12 15 50 0 43 3 50 20 50 11 0 20 5 20 10 0 6 -25 10 -55 10 -30 0
-55 -4 -55 -10z"/>
<path d="M1097 243 c-15 -15 -5 -22 23 -16 41 8 39 -12 -2 -23 -22 -7 -34 -17
-36 -31 -4 -29 30 -48 58 -33 14 7 20 7 20 0 0 -5 5 -10 10 -10 14 0 12 94 -2
108 -13 13 -60 16 -71 5z m53 -67 c0 -21 -20 -30 -33 -17 -9 9 -8 14 3 21 21
14 30 12 30 -4z"/>
<path d="M1210 190 c0 -47 3 -60 15 -60 10 0 15 10 15 28 l1 27 24 -27 c13
-16 32 -28 41 -28 16 0 15 2 -3 23 -35 38 -36 47 -12 73 29 31 5 33 -28 2
l-23 -21 0 21 c0 13 -6 22 -15 22 -12 0 -15 -13 -15 -60z"/>
<path d="M1320 240 c0 -5 11 -10 25 -10 23 0 25 -3 25 -51 0 -66 24 -62 28 4
3 39 6 47 23 47 10 0 19 5 19 10 0 6 -27 10 -60 10 -33 0 -60 -4 -60 -10z"/>
<path d="M1456 234 c-53 -52 27 -133 85 -85 16 14 19 20 9 21 -8 0 -22 -4 -29
-9 -9 -6 -22 -6 -33 0 -31 17 -20 29 27 29 38 0 45 3 45 20 0 37 -74 55 -104
24z m69 -14 c4 -6 -7 -10 -25 -10 -18 0 -29 4 -25 10 3 6 15 10 25 10 10 0 22
-4 25 -10z"/>
</g>
</svg>
