<?xml version="1.0" standalone="no"?>
<!DOCTYPE svg PUBLIC "-//W3C//DTD SVG 20010904//EN"
 "http://www.w3.org/TR/2001/REC-SVG-20010904/DTD/svg10.dtd">
<svg version="1.0" xmlns="http://www.w3.org/2000/svg"
 width="110.000000pt" height="100.000000pt" viewBox="0 0 110.000000 100.000000"
 preserveAspectRatio="xMidYMid meet">

<g transform="translate(0.000000,100.000000) scale(0.100000,-0.100000)"
fill="#000000" stroke="none">
<path d="M227 949 c-20 -11 -49 -38 -65 -61 -24 -38 -27 -50 -27 -132 0 -101
14 -149 74 -251 46 -78 188 -225 270 -279 113 -74 163 -90 272 -91 88 0 99 2
138 28 67 45 97 132 70 204 -14 38 -75 100 -124 126 -27 14 -58 21 -95 21 -60
-1 -90 -13 -132 -51 l-27 -25 -30 21 c-31 23 -111 109 -111 121 0 4 9 15 21
26 56 50 70 156 32 229 -26 49 -88 110 -126 124 -43 16 -98 12 -140 -10z m160
-85 c72 -77 80 -143 26 -211 -15 -19 -32 -41 -37 -48 -16 -22 3 -62 56 -121
64 -70 123 -114 153 -114 12 0 32 12 46 26 58 62 121 70 192 23 60 -40 77 -64
77 -111 0 -27 -8 -47 -29 -70 -26 -30 -35 -33 -100 -36 -125 -7 -241 49 -377
183 -82 80 -154 187 -179 263 -12 36 -16 74 -13 123 3 65 6 74 36 100 49 43
103 41 149 -7z"/>
</g>
</svg>
