<?xml version="1.0" standalone="no"?>
<!DOCTYPE svg PUBLIC "-//W3C//DTD SVG 20010904//EN"
 "http://www.w3.org/TR/2001/REC-SVG-20010904/DTD/svg10.dtd">
<svg version="1.0" xmlns="http://www.w3.org/2000/svg"
 width="110.000000pt" height="100.000000pt" viewBox="0 0 110.000000 100.000000"
 preserveAspectRatio="xMidYMid meet">

<g transform="translate(0.000000,100.000000) scale(0.100000,-0.100000)"
fill="#000000" stroke="none">
<path d="M295 801 c-58 -35 -70 -58 -70 -126 0 -54 4 -67 25 -90 98 -105 255
-49 255 90 0 111 -119 183 -210 126z m122 -73 c46 -43 14 -128 -48 -128 -42 0
-60 10 -74 44 -33 78 60 143 122 84z"/>
<path d="M671 802 c-47 -23 -72 -61 -78 -113 -8 -81 46 -147 129 -156 50 -6
89 10 128 52 21 23 25 36 25 90 0 54 -4 67 -25 90 -53 56 -116 70 -179 37z
m109 -62 c43 -23 40 -116 -5 -134 -82 -31 -152 58 -93 121 23 24 66 30 98 13z"/>
<path d="M264 447 c-60 -16 -120 -51 -135 -79 -37 -69 -27 -137 24 -169 29
-18 47 -19 220 -17 l189 3 29 33 c87 98 -23 227 -202 237 -42 3 -96 -1 -125
-8z m228 -82 c41 -20 61 -51 56 -86 l-3 -24 -174 -3 c-180 -3 -201 1 -201 39
0 28 41 68 85 85 54 19 187 13 237 -11z"/>
<path d="M676 444 c-12 -11 -13 -20 -6 -33 7 -14 25 -19 83 -23 86 -6 145 -31
167 -70 11 -21 12 -32 4 -45 -9 -15 -30 -19 -112 -23 -104 -5 -127 -14 -120
-46 3 -17 15 -19 113 -22 95 -2 114 0 142 17 76 47 57 168 -34 218 -73 40
-209 56 -237 27z"/>
</g>
</svg>
