<?xml version="1.0" standalone="no"?>
<!DOCTYPE svg PUBLIC "-//W3C//DTD SVG 20010904//EN"
 "http://www.w3.org/TR/2001/REC-SVG-20010904/DTD/svg10.dtd">
<svg version="1.0" xmlns="http://www.w3.org/2000/svg"
 width="110.000000pt" height="100.000000pt" viewBox="0 0 110.000000 100.000000"
 preserveAspectRatio="xMidYMid meet">

<g transform="translate(0.000000,100.000000) scale(0.100000,-0.100000)"
fill="#000000" stroke="none">
<path d="M280 891 c-56 -9 -102 -33 -129 -66 -41 -53 -46 -89 -46 -335 l0
-235 28 -47 c18 -31 44 -57 75 -75 l47 -28 235 0 c246 0 282 5 335 47 14 11
36 39 48 61 21 40 22 54 22 277 0 254 -8 301 -58 348 -51 48 -89 56 -307 58
-113 1 -225 -1 -250 -5z m483 -84 c35 -23 54 -53 62 -99 l7 -38 -331 0 c-258
0 -331 3 -331 13 0 60 43 120 96 137 16 5 128 8 249 7 192 -2 224 -4 248 -20z
m65 -375 c-3 -182 -9 -202 -65 -239 -24 -16 -54 -18 -263 -18 -209 0 -239 2
-263 18 -56 37 -62 57 -65 239 l-4 168 332 0 332 0 -4 -168z"/>
</g>
</svg>
