<?xml version="1.0" standalone="no"?>
<!DOCTYPE svg PUBLIC "-//W3C//DTD SVG 20010904//EN"
 "http://www.w3.org/TR/2001/REC-SVG-20010904/DTD/svg10.dtd">
<svg version="1.0" xmlns="http://www.w3.org/2000/svg"
 width="110.000000pt" height="100.000000pt" viewBox="0 0 110.000000 100.000000"
 preserveAspectRatio="xMidYMid meet">

<g transform="translate(0.000000,100.000000) scale(0.100000,-0.100000)"
fill="#000000" stroke="none">
<path d="M445 871 c-74 -9 -111 -28 -157 -79 -56 -62 -63 -93 -63 -312 0 -227
9 -263 79 -328 66 -61 94 -67 316 -67 222 0 250 6 316 67 71 65 79 100 78 333
0 221 -4 240 -65 310 -57 65 -97 76 -282 80 -89 2 -189 0 -222 -4z m372 -72
c59 -15 107 -63 122 -122 12 -48 16 -217 5 -217 -4 0 -24 16 -45 35 -31 28
-47 35 -80 35 -38 0 -48 -6 -120 -76 l-78 -77 -31 27 c-23 19 -43 26 -72 26
-37 0 -47 -7 -124 -82 -46 -45 -87 -78 -91 -74 -5 4 -8 98 -8 209 0 193 1 204
23 238 25 42 62 69 107 80 49 12 342 10 392 -2z m82 -393 c52 -53 53 -55 46
-97 -9 -59 -45 -112 -92 -135 -34 -17 -61 -19 -238 -19 -181 0 -203 2 -232 20
-18 10 -33 24 -33 30 0 6 33 43 73 83 83 83 107 89 152 42 16 -16 36 -30 45
-30 8 0 51 36 95 80 98 99 110 101 184 26z"/>
<path d="M460 667 c-47 -24 -43 -91 6 -103 48 -12 85 27 69 72 -12 33 -44 46
-75 31z"/>
</g>
</svg>
