<?xml version="1.0" standalone="no"?>
<!DOCTYPE svg PUBLIC "-//W3C//DTD SVG 20010904//EN"
 "http://www.w3.org/TR/2001/REC-SVG-20010904/DTD/svg10.dtd">
<svg version="1.0" xmlns="http://www.w3.org/2000/svg"
 width="110.000000pt" height="100.000000pt" viewBox="0 0 110.000000 100.000000"
 preserveAspectRatio="xMidYMid meet">

<g transform="translate(0.000000,100.000000) scale(0.100000,-0.100000)"
fill="#000000" stroke="none">
<path d="M320 845 c-8 -2 -32 -6 -53 -10 -48 -8 -111 -63 -129 -113 -15 -42
-19 -460 -5 -525 10 -46 60 -105 107 -125 45 -20 393 -29 494 -14 81 13 130
46 161 108 17 34 20 65 23 234 5 236 -5 318 -46 369 -55 69 -80 75 -322 78
-118 1 -222 0 -230 -2z m321 -88 c51 -34 54 -51 54 -307 0 -334 7 -325 -252
-325 -257 0 -256 -2 -251 347 3 212 4 228 24 255 34 45 72 53 244 50 129 -2
159 -5 181 -20z m176 -22 c31 -35 35 -80 31 -322 -3 -196 -5 -214 -24 -240
-17 -23 -82 -57 -92 -48 -1 1 6 19 15 41 16 34 18 71 18 284 0 212 -2 250 -17
284 -10 21 -18 40 -18 42 0 12 69 -21 87 -41z"/>
<path d="M334 587 c-24 -21 -28 -32 -31 -103 -6 -103 5 -152 40 -178 24 -18
31 -19 65 -7 20 7 67 33 105 58 69 46 85 71 73 116 -9 37 -163 137 -212 137
-7 0 -25 -10 -40 -23z m94 -72 c26 -13 58 -33 72 -45 l25 -20 -25 -20 c-24
-20 -114 -70 -125 -70 -3 0 -5 41 -5 90 0 50 2 90 5 90 3 0 27 -11 53 -25z"/>
</g>
</svg>
