<?xml version="1.0" standalone="no"?>
<!DOCTYPE svg PUBLIC "-//W3C//DTD SVG 20010904//EN"
 "http://www.w3.org/TR/2001/REC-SVG-20010904/DTD/svg10.dtd">
<svg version="1.0" xmlns="http://www.w3.org/2000/svg"
 width="110.000000pt" height="100.000000pt" viewBox="0 0 110.000000 100.000000"
 preserveAspectRatio="xMidYMid meet">

<g transform="translate(0.000000,100.000000) scale(0.100000,-0.100000)"
fill="#000000" stroke="none">
<path d="M523 765 c-104 -45 -94 -207 15 -245 37 -13 47 -13 84 0 110 39 119
202 13 246 -43 17 -71 17 -112 -1z m102 -75 c37 -41 9 -110 -45 -110 -15 0
-35 9 -45 20 -37 41 -9 110 45 110 15 0 35 -9 45 -20z"/>
<path d="M275 717 c-30 -30 -35 -42 -35 -82 0 -61 28 -100 81 -116 34 -11 42
-10 57 4 22 23 7 48 -36 59 -56 15 -57 80 -2 101 25 9 30 17 28 37 -5 41 -50
40 -93 -3z"/>
<path d="M791 736 c-16 -19 -5 -40 29 -53 55 -21 53 -86 -2 -101 -40 -10 -57
-34 -39 -56 41 -49 151 31 151 110 0 72 -102 145 -139 100z"/>
<path d="M253 460 c-98 -23 -147 -120 -98 -193 20 -32 81 -52 102 -35 21 17
12 52 -14 56 -76 11 -34 112 46 112 29 0 45 34 25 54 -8 9 -18 16 -22 15 -4
-1 -22 -4 -39 -9z"/>
<path d="M845 454 c-19 -20 -3 -54 26 -54 80 0 122 -101 46 -112 -28 -4 -35
-43 -10 -56 31 -17 84 8 105 50 23 43 18 83 -14 123 -38 48 -125 76 -153 49z"/>
<path d="M495 431 c-89 -23 -145 -80 -145 -145 0 -54 28 -92 78 -106 48 -13
256 -13 304 0 50 14 78 52 78 106 0 51 -32 94 -94 126 -45 23 -166 34 -221 19z
m193 -81 c26 -12 46 -29 52 -45 13 -33 13 -31 -6 -49 -23 -23 -285 -23 -308 0
-19 18 -19 16 -6 49 23 60 177 86 268 45z"/>
</g>
</svg>
