<?xml version="1.0" standalone="no"?>
<!DOCTYPE svg PUBLIC "-//W3C//DTD SVG 20010904//EN"
 "http://www.w3.org/TR/2001/REC-SVG-20010904/DTD/svg10.dtd">
<svg version="1.0" xmlns="http://www.w3.org/2000/svg"
 width="110.000000pt" height="100.000000pt" viewBox="0 0 110.000000 100.000000"
 preserveAspectRatio="xMidYMid meet">

<g transform="translate(0.000000,100.000000) scale(0.100000,-0.100000)"
fill="#000000" stroke="none">
<path d="M450 896 c-242 -65 -361 -307 -255 -516 l23 -46 -24 -60 c-14 -32
-29 -68 -34 -80 -15 -38 9 -69 58 -72 50 -4 146 21 183 48 21 15 33 17 65 10
140 -33 313 18 405 118 67 72 94 142 94 242 0 99 -26 168 -91 239 -96 107
-278 157 -424 117z m262 -83 c205 -92 252 -336 94 -481 -26 -24 -69 -53 -94
-65 -58 -25 -181 -34 -251 -17 -47 11 -52 10 -83 -13 -37 -27 -89 -47 -125
-47 -22 0 -23 1 -9 28 7 15 21 50 29 78 15 51 15 53 -13 105 -36 69 -44 108
-35 174 13 104 105 211 214 249 66 23 210 17 273 -11z"/>
</g>
</svg>
