<?xml version="1.0" standalone="no"?>
<!DOCTYPE svg PUBLIC "-//W3C//DTD SVG 20010904//EN"
 "http://www.w3.org/TR/2001/REC-SVG-20010904/DTD/svg10.dtd">
<svg version="1.0" xmlns="http://www.w3.org/2000/svg"
 width="110.000000pt" height="100.000000pt" viewBox="0 0 110.000000 100.000000"
 preserveAspectRatio="xMidYMid meet">

<g transform="translate(0.000000,100.000000) scale(0.100000,-0.100000)"
fill="#000000" stroke="none">
<path d="M286 890 c-58 -10 -111 -50 -140 -106 -19 -35 -21 -60 -24 -235 -5
-236 6 -318 46 -367 55 -69 83 -77 303 -80 236 -5 318 6 367 46 69 55 77 83
80 303 6 302 -12 370 -114 423 -36 19 -58 21 -254 23 -118 1 -237 -2 -264 -7z
m502 -82 c13 -9 31 -26 39 -38 16 -22 31 -140 18 -140 -4 0 -33 16 -65 35 -76
46 -131 65 -194 65 -43 0 -70 -9 -171 -60 -82 -41 -137 -63 -172 -67 l-53 -6
0 50 c0 28 3 65 6 82 8 37 54 88 87 94 12 3 126 4 252 3 197 -1 233 -3 253
-18z m-87 -177 c30 -15 77 -43 103 -62 l47 -34 -3 -140 c-5 -222 -2 -220 -328
-220 -325 0 -323 -1 -328 215 l-4 136 69 11 c46 8 103 29 178 67 61 31 119 57
130 59 35 7 78 -4 136 -32z"/>
<path d="M565 548 c-3 -13 -4 -77 -3 -143 l3 -120 30 0 30 0 3 120 c1 66 0
130 -3 143 -8 31 -52 31 -60 0z"/>
<path d="M426 487 c-24 -18 -19 -175 6 -190 12 -8 21 -7 32 2 12 10 16 33 16
97 0 71 -3 85 -19 93 -13 7 -23 7 -35 -2z"/>
<path d="M726 487 c-14 -10 -16 -27 -14 -102 l3 -90 30 0 30 0 3 92 c2 82 1
93 -16 102 -14 7 -24 7 -36 -2z"/>
<path d="M276 437 c-13 -10 -17 -24 -14 -57 3 -43 5 -45 33 -45 29 0 30 2 33
47 2 38 -1 49 -16 57 -14 7 -24 7 -36 -2z"/>
</g>
</svg>
