<?xml version="1.0" standalone="no"?>
<!DOCTYPE svg PUBLIC "-//W3C//DTD SVG 20010904//EN"
 "http://www.w3.org/TR/2001/REC-SVG-20010904/DTD/svg10.dtd">
<svg version="1.0" xmlns="http://www.w3.org/2000/svg"
 width="110.000000pt" height="100.000000pt" viewBox="0 0 110.000000 100.000000"
 preserveAspectRatio="xMidYMid meet">

<g transform="translate(0.000000,100.000000) scale(0.100000,-0.100000)"
fill="#000000" stroke="none">
<path d="M433 895 c-81 -22 -131 -52 -190 -111 -162 -162 -161 -427 1 -590
230 -229 621 -120 702 196 52 202 -62 417 -259 492 -68 26 -186 32 -254 13z
m234 -77 c81 -30 171 -121 202 -203 32 -83 27 -198 -12 -278 -40 -81 -44 -82
-118 -47 -124 58 -274 58 -398 0 -74 -35 -78 -34 -118 47 -37 77 -44 195 -15
271 38 99 120 181 217 216 62 23 174 20 242 -6z m30 -583 l58 -26 -40 -25
c-54 -33 -98 -44 -175 -44 -77 0 -121 11 -174 44 l-40 24 42 21 c63 32 109 41
194 37 56 -3 92 -11 135 -31z"/>
<path d="M473 694 c-101 -50 -100 -210 1 -258 99 -47 209 21 209 129 0 108
-112 177 -210 129z m122 -79 c14 -13 25 -36 25 -50 0 -36 -42 -75 -80 -75 -38
0 -80 39 -80 75 0 36 42 75 80 75 19 0 40 -9 55 -25z"/>
</g>
</svg>
